G04 EAGLE Gerber RS-274X export*
G75*
%MOMM*%
%FSLAX34Y34*%
%LPD*%
%INSilkscreen Bottom*%
%IPPOS*%
%AMOC8*
5,1,8,0,0,1.08239X$1,22.5*%
G01*
G04 Define Apertures*
%ADD10C,0.152400*%
G36*
X1373527Y102012D02*
X1372460Y102039D01*
X1371461Y102110D01*
X1370986Y102163D01*
X1370529Y102227D01*
X1370088Y102303D01*
X1369664Y102389D01*
X1369257Y102487D01*
X1368868Y102597D01*
X1368495Y102717D01*
X1368138Y102849D01*
X1367799Y102992D01*
X1367477Y103147D01*
X1367172Y103312D01*
X1366883Y103489D01*
X1366612Y103678D01*
X1366358Y103880D01*
X1366122Y104093D01*
X1365904Y104320D01*
X1365703Y104558D01*
X1365520Y104810D01*
X1365354Y105073D01*
X1365206Y105349D01*
X1365075Y105638D01*
X1364962Y105939D01*
X1364867Y106252D01*
X1364789Y106578D01*
X1364729Y106916D01*
X1364686Y107267D01*
X1364661Y107630D01*
X1364654Y108006D01*
X1364664Y108392D01*
X1364691Y108764D01*
X1364736Y109124D01*
X1364798Y109470D01*
X1364877Y109803D01*
X1364974Y110123D01*
X1365087Y110429D01*
X1365219Y110723D01*
X1365367Y111003D01*
X1365533Y111269D01*
X1365716Y111523D01*
X1365916Y111763D01*
X1366134Y111990D01*
X1366369Y112204D01*
X1366621Y112405D01*
X1366890Y112592D01*
X1367177Y112767D01*
X1367482Y112931D01*
X1367803Y113083D01*
X1368142Y113224D01*
X1368499Y113353D01*
X1368873Y113471D01*
X1369264Y113578D01*
X1369673Y113673D01*
X1370099Y113757D01*
X1370543Y113829D01*
X1371004Y113890D01*
X1371482Y113939D01*
X1371978Y113977D01*
X1372491Y114004D01*
X1373569Y114023D01*
X1374106Y114015D01*
X1374625Y113996D01*
X1375129Y113965D01*
X1375616Y113922D01*
X1376087Y113868D01*
X1376542Y113802D01*
X1376980Y113724D01*
X1377402Y113635D01*
X1377807Y113534D01*
X1378197Y113422D01*
X1378569Y113298D01*
X1378926Y113162D01*
X1379266Y113015D01*
X1379590Y112856D01*
X1379898Y112685D01*
X1380189Y112503D01*
X1380463Y112309D01*
X1380719Y112104D01*
X1380958Y111887D01*
X1381179Y111658D01*
X1381382Y111418D01*
X1381567Y111167D01*
X1381735Y110904D01*
X1381884Y110629D01*
X1382016Y110343D01*
X1382131Y110045D01*
X1382227Y109736D01*
X1382306Y109415D01*
X1382367Y109083D01*
X1382410Y108739D01*
X1382435Y108384D01*
X1382443Y108017D01*
X1382433Y107650D01*
X1382405Y107295D01*
X1382359Y106951D01*
X1382295Y106618D01*
X1382214Y106297D01*
X1382115Y105987D01*
X1381998Y105688D01*
X1381863Y105401D01*
X1381711Y105126D01*
X1381540Y104862D01*
X1381352Y104609D01*
X1381146Y104368D01*
X1380923Y104138D01*
X1380681Y103919D01*
X1380422Y103712D01*
X1380145Y103517D01*
X1379851Y103333D01*
X1379541Y103161D01*
X1379216Y103001D01*
X1378874Y102853D01*
X1378516Y102717D01*
X1378142Y102593D01*
X1377753Y102481D01*
X1377347Y102381D01*
X1376926Y102293D01*
X1376488Y102217D01*
X1376034Y102153D01*
X1375565Y102101D01*
X1375080Y102061D01*
X1374578Y102033D01*
X1374061Y102016D01*
X1373527Y102012D01*
G37*
%LPC*%
G36*
X1373535Y104257D02*
X1374408Y104269D01*
X1375222Y104308D01*
X1375979Y104377D01*
X1376677Y104473D01*
X1377317Y104599D01*
X1377898Y104753D01*
X1378422Y104935D01*
X1378887Y105147D01*
X1379296Y105388D01*
X1379651Y105663D01*
X1379952Y105970D01*
X1380198Y106311D01*
X1380301Y106493D01*
X1380390Y106683D01*
X1380465Y106882D01*
X1380527Y107089D01*
X1380576Y107304D01*
X1380610Y107528D01*
X1380632Y107759D01*
X1380639Y107999D01*
X1380633Y108240D01*
X1380614Y108473D01*
X1380582Y108698D01*
X1380536Y108914D01*
X1380477Y109123D01*
X1380404Y109323D01*
X1380219Y109698D01*
X1379980Y110040D01*
X1379688Y110350D01*
X1379343Y110626D01*
X1378944Y110870D01*
X1378488Y111082D01*
X1377969Y111267D01*
X1377389Y111424D01*
X1376747Y111553D01*
X1376044Y111655D01*
X1375278Y111728D01*
X1374451Y111773D01*
X1373562Y111790D01*
X1372647Y111779D01*
X1371799Y111741D01*
X1371018Y111674D01*
X1370304Y111579D01*
X1369656Y111456D01*
X1369074Y111305D01*
X1368560Y111126D01*
X1368111Y110920D01*
X1367722Y110681D01*
X1367385Y110406D01*
X1367099Y110095D01*
X1366865Y109748D01*
X1366683Y109365D01*
X1366611Y109160D01*
X1366552Y108946D01*
X1366506Y108723D01*
X1366473Y108491D01*
X1366452Y108249D01*
X1366445Y107999D01*
X1366451Y107755D01*
X1366470Y107520D01*
X1366502Y107293D01*
X1366547Y107076D01*
X1366605Y106866D01*
X1366677Y106666D01*
X1366859Y106291D01*
X1367094Y105951D01*
X1367382Y105646D01*
X1367723Y105376D01*
X1368116Y105141D01*
X1368567Y104937D01*
X1369084Y104759D01*
X1369664Y104609D01*
X1370310Y104485D01*
X1371019Y104388D01*
X1371793Y104318D01*
X1372632Y104274D01*
X1373535Y104257D01*
G37*
%LPD*%
G36*
X1373430Y74075D02*
X1372363Y74102D01*
X1371363Y74173D01*
X1370889Y74226D01*
X1370431Y74290D01*
X1369990Y74365D01*
X1369567Y74452D01*
X1369160Y74550D01*
X1368770Y74659D01*
X1368397Y74780D01*
X1368041Y74912D01*
X1367702Y75055D01*
X1367380Y75209D01*
X1367074Y75375D01*
X1366786Y75552D01*
X1366514Y75741D01*
X1366261Y75942D01*
X1366025Y76156D01*
X1365806Y76382D01*
X1365606Y76621D01*
X1365422Y76872D01*
X1365257Y77136D01*
X1365108Y77412D01*
X1364978Y77700D01*
X1364865Y78001D01*
X1364770Y78315D01*
X1364692Y78641D01*
X1364632Y78979D01*
X1364589Y79330D01*
X1364564Y79693D01*
X1364556Y80068D01*
X1364566Y80454D01*
X1364594Y80827D01*
X1364638Y81187D01*
X1364700Y81533D01*
X1364780Y81866D01*
X1364876Y82185D01*
X1364990Y82492D01*
X1365121Y82785D01*
X1365269Y83065D01*
X1365435Y83332D01*
X1365618Y83586D01*
X1365819Y83826D01*
X1366036Y84053D01*
X1366271Y84267D01*
X1366523Y84468D01*
X1366793Y84655D01*
X1367080Y84830D01*
X1367384Y84994D01*
X1367706Y85146D01*
X1368045Y85287D01*
X1368401Y85416D01*
X1368775Y85534D01*
X1369167Y85640D01*
X1369575Y85736D01*
X1370002Y85819D01*
X1370445Y85892D01*
X1370906Y85952D01*
X1371384Y86002D01*
X1371880Y86040D01*
X1372393Y86066D01*
X1373472Y86085D01*
X1374008Y86078D01*
X1374528Y86058D01*
X1375031Y86027D01*
X1375519Y85985D01*
X1375990Y85930D01*
X1376444Y85865D01*
X1376882Y85787D01*
X1377304Y85698D01*
X1377710Y85597D01*
X1378099Y85485D01*
X1378472Y85361D01*
X1378828Y85225D01*
X1379169Y85077D01*
X1379493Y84918D01*
X1379800Y84748D01*
X1380091Y84566D01*
X1380365Y84372D01*
X1380622Y84166D01*
X1380860Y83949D01*
X1381081Y83721D01*
X1381284Y83481D01*
X1381470Y83230D01*
X1381637Y82966D01*
X1381787Y82692D01*
X1381919Y82406D01*
X1382033Y82108D01*
X1382130Y81799D01*
X1382208Y81478D01*
X1382269Y81146D01*
X1382312Y80802D01*
X1382338Y80447D01*
X1382345Y80080D01*
X1382335Y79713D01*
X1382307Y79357D01*
X1382261Y79013D01*
X1382198Y78681D01*
X1382116Y78359D01*
X1382017Y78050D01*
X1381900Y77751D01*
X1381766Y77464D01*
X1381613Y77189D01*
X1381443Y76924D01*
X1381255Y76672D01*
X1381049Y76430D01*
X1380825Y76201D01*
X1380584Y75982D01*
X1380325Y75775D01*
X1380048Y75579D01*
X1379754Y75395D01*
X1379444Y75223D01*
X1379118Y75064D01*
X1378776Y74916D01*
X1378419Y74780D01*
X1378045Y74656D01*
X1377655Y74544D01*
X1377250Y74444D01*
X1376828Y74356D01*
X1376390Y74280D01*
X1375937Y74215D01*
X1375467Y74163D01*
X1374982Y74123D01*
X1374481Y74095D01*
X1373963Y74079D01*
X1373430Y74075D01*
G37*
%LPC*%
G36*
X1373438Y76320D02*
X1374310Y76331D01*
X1375125Y76371D01*
X1375881Y76439D01*
X1376579Y76536D01*
X1377219Y76662D01*
X1377801Y76816D01*
X1378324Y76998D01*
X1378790Y77209D01*
X1379199Y77451D01*
X1379554Y77726D01*
X1379854Y78033D01*
X1380100Y78373D01*
X1380203Y78556D01*
X1380292Y78746D01*
X1380368Y78945D01*
X1380430Y79152D01*
X1380478Y79367D01*
X1380513Y79590D01*
X1380534Y79822D01*
X1380542Y80062D01*
X1380536Y80303D01*
X1380517Y80536D01*
X1380484Y80761D01*
X1380438Y80977D01*
X1380379Y81185D01*
X1380307Y81385D01*
X1380121Y81761D01*
X1379883Y82103D01*
X1379591Y82412D01*
X1379245Y82689D01*
X1378847Y82932D01*
X1378390Y83145D01*
X1377872Y83330D01*
X1377292Y83487D01*
X1376650Y83616D01*
X1375946Y83717D01*
X1375181Y83790D01*
X1374353Y83835D01*
X1373464Y83853D01*
X1372550Y83842D01*
X1371702Y83803D01*
X1370921Y83736D01*
X1370206Y83642D01*
X1369558Y83519D01*
X1368977Y83368D01*
X1368462Y83189D01*
X1368014Y82982D01*
X1367625Y82743D01*
X1367288Y82468D01*
X1367002Y82157D01*
X1366768Y81810D01*
X1366585Y81427D01*
X1366513Y81222D01*
X1366454Y81008D01*
X1366408Y80785D01*
X1366375Y80553D01*
X1366355Y80312D01*
X1366348Y80062D01*
X1366353Y79818D01*
X1366372Y79583D01*
X1366404Y79356D01*
X1366449Y79138D01*
X1366508Y78929D01*
X1366579Y78729D01*
X1366762Y78354D01*
X1366997Y78014D01*
X1367285Y77709D01*
X1367625Y77439D01*
X1368018Y77204D01*
X1368470Y77000D01*
X1368986Y76822D01*
X1369567Y76671D01*
X1370212Y76548D01*
X1370922Y76451D01*
X1371696Y76380D01*
X1372535Y76337D01*
X1373438Y76320D01*
G37*
%LPD*%
G36*
X1370279Y155458D02*
X1369973Y155465D01*
X1369677Y155485D01*
X1369389Y155517D01*
X1369110Y155561D01*
X1368840Y155618D01*
X1368578Y155688D01*
X1368081Y155864D01*
X1367619Y156090D01*
X1367193Y156366D01*
X1366801Y156691D01*
X1366445Y157066D01*
X1366127Y157486D01*
X1365852Y157947D01*
X1365620Y158450D01*
X1365430Y158993D01*
X1365283Y159576D01*
X1365179Y160201D01*
X1365117Y160867D01*
X1365099Y161573D01*
X1365124Y168848D01*
X1382410Y168788D01*
X1382401Y166444D01*
X1375666Y166468D01*
X1375648Y161389D01*
X1375624Y160720D01*
X1375553Y160087D01*
X1375438Y159490D01*
X1375278Y158929D01*
X1375073Y158404D01*
X1374822Y157915D01*
X1374526Y157462D01*
X1374186Y157045D01*
X1373807Y156671D01*
X1373397Y156347D01*
X1372955Y156074D01*
X1372482Y155850D01*
X1371978Y155677D01*
X1371443Y155554D01*
X1371164Y155511D01*
X1370877Y155481D01*
X1370582Y155463D01*
X1370279Y155458D01*
G37*
%LPC*%
G36*
X1370312Y157813D02*
X1370732Y157827D01*
X1371126Y157872D01*
X1371492Y157947D01*
X1371831Y158053D01*
X1372144Y158190D01*
X1372429Y158358D01*
X1372688Y158556D01*
X1372919Y158785D01*
X1373123Y159045D01*
X1373301Y159336D01*
X1373451Y159658D01*
X1373574Y160010D01*
X1373670Y160393D01*
X1373740Y160807D01*
X1373782Y161251D01*
X1373797Y161727D01*
X1373814Y166474D01*
X1366993Y166498D01*
X1366977Y161849D01*
X1366988Y161361D01*
X1367026Y160905D01*
X1367089Y160481D01*
X1367180Y160087D01*
X1367296Y159726D01*
X1367439Y159395D01*
X1367608Y159096D01*
X1367803Y158828D01*
X1368025Y158591D01*
X1368273Y158386D01*
X1368547Y158212D01*
X1368847Y158070D01*
X1369174Y157959D01*
X1369527Y157879D01*
X1369906Y157830D01*
X1370312Y157813D01*
G37*
%LPD*%
G36*
X1376570Y116125D02*
X1375954Y116149D01*
X1375371Y116217D01*
X1374820Y116328D01*
X1374302Y116484D01*
X1373816Y116683D01*
X1373362Y116926D01*
X1372940Y117213D01*
X1372551Y117543D01*
X1372202Y117911D01*
X1371899Y118310D01*
X1371643Y118739D01*
X1371434Y119199D01*
X1371272Y119689D01*
X1371157Y120211D01*
X1371089Y120763D01*
X1371068Y121345D01*
X1371078Y121693D01*
X1371106Y122031D01*
X1371153Y122358D01*
X1371218Y122676D01*
X1371301Y122984D01*
X1371402Y123281D01*
X1371522Y123569D01*
X1371659Y123846D01*
X1371814Y124111D01*
X1371986Y124360D01*
X1372174Y124594D01*
X1372379Y124813D01*
X1372600Y125016D01*
X1372838Y125204D01*
X1373093Y125376D01*
X1373364Y125533D01*
X1372554Y125520D01*
X1371794Y125474D01*
X1371083Y125395D01*
X1370420Y125284D01*
X1369807Y125141D01*
X1369244Y124964D01*
X1368729Y124756D01*
X1368263Y124514D01*
X1367850Y124243D01*
X1367491Y123945D01*
X1367187Y123621D01*
X1366938Y123269D01*
X1366745Y122891D01*
X1366668Y122691D01*
X1366606Y122485D01*
X1366557Y122273D01*
X1366522Y122053D01*
X1366500Y121827D01*
X1366492Y121595D01*
X1366500Y121326D01*
X1366524Y121070D01*
X1366564Y120825D01*
X1366621Y120593D01*
X1366694Y120372D01*
X1366784Y120164D01*
X1366891Y119967D01*
X1367014Y119783D01*
X1367153Y119611D01*
X1367309Y119450D01*
X1367482Y119302D01*
X1367671Y119166D01*
X1367877Y119042D01*
X1368099Y118929D01*
X1368337Y118829D01*
X1368593Y118741D01*
X1368205Y116632D01*
X1367779Y116772D01*
X1367381Y116935D01*
X1367010Y117120D01*
X1366667Y117328D01*
X1366351Y117558D01*
X1366064Y117811D01*
X1365803Y118086D01*
X1365570Y118383D01*
X1365365Y118704D01*
X1365188Y119047D01*
X1365038Y119412D01*
X1364915Y119800D01*
X1364820Y120210D01*
X1364753Y120643D01*
X1364713Y121098D01*
X1364701Y121576D01*
X1364712Y121942D01*
X1364741Y122297D01*
X1364790Y122641D01*
X1364856Y122975D01*
X1364942Y123298D01*
X1365047Y123610D01*
X1365170Y123912D01*
X1365312Y124203D01*
X1365472Y124483D01*
X1365652Y124752D01*
X1365850Y125011D01*
X1366067Y125259D01*
X1366302Y125496D01*
X1366557Y125723D01*
X1366830Y125939D01*
X1367122Y126144D01*
X1367431Y126337D01*
X1367757Y126518D01*
X1368099Y126687D01*
X1368457Y126842D01*
X1368831Y126985D01*
X1369222Y127116D01*
X1369629Y127234D01*
X1370052Y127339D01*
X1370491Y127432D01*
X1370947Y127512D01*
X1371419Y127579D01*
X1371907Y127634D01*
X1372411Y127676D01*
X1372932Y127706D01*
X1373469Y127722D01*
X1374022Y127727D01*
X1374533Y127719D01*
X1375028Y127699D01*
X1375507Y127667D01*
X1375972Y127623D01*
X1376420Y127568D01*
X1376853Y127500D01*
X1377271Y127420D01*
X1377673Y127328D01*
X1378060Y127224D01*
X1378432Y127108D01*
X1378787Y126980D01*
X1379128Y126839D01*
X1379453Y126687D01*
X1379762Y126523D01*
X1380056Y126347D01*
X1380335Y126159D01*
X1380597Y125960D01*
X1380842Y125749D01*
X1381070Y125528D01*
X1381282Y125297D01*
X1381476Y125055D01*
X1381653Y124802D01*
X1381813Y124538D01*
X1381957Y124264D01*
X1382083Y123979D01*
X1382192Y123684D01*
X1382284Y123377D01*
X1382360Y123060D01*
X1382418Y122733D01*
X1382459Y122394D01*
X1382483Y122046D01*
X1382490Y121686D01*
X1382483Y121364D01*
X1382464Y121050D01*
X1382432Y120746D01*
X1382387Y120450D01*
X1382331Y120163D01*
X1382262Y119886D01*
X1382087Y119356D01*
X1381862Y118863D01*
X1381589Y118404D01*
X1381266Y117981D01*
X1380894Y117594D01*
X1380479Y117247D01*
X1380028Y116947D01*
X1379541Y116694D01*
X1379019Y116487D01*
X1378460Y116327D01*
X1377866Y116213D01*
X1377236Y116145D01*
X1376570Y116125D01*
G37*
%LPC*%
G36*
X1376676Y118369D02*
X1377133Y118382D01*
X1377565Y118423D01*
X1377971Y118492D01*
X1378353Y118590D01*
X1378710Y118717D01*
X1379041Y118872D01*
X1379348Y119055D01*
X1379630Y119267D01*
X1379882Y119504D01*
X1380101Y119762D01*
X1380287Y120042D01*
X1380439Y120344D01*
X1380557Y120667D01*
X1380642Y121011D01*
X1380694Y121378D01*
X1380712Y121766D01*
X1380693Y122143D01*
X1380635Y122504D01*
X1380536Y122847D01*
X1380398Y123173D01*
X1380219Y123482D01*
X1380001Y123773D01*
X1379743Y124047D01*
X1379445Y124303D01*
X1379115Y124536D01*
X1378763Y124738D01*
X1378388Y124909D01*
X1377991Y125049D01*
X1377570Y125159D01*
X1377127Y125237D01*
X1376661Y125285D01*
X1376173Y125302D01*
X1375788Y125289D01*
X1375424Y125246D01*
X1375081Y125173D01*
X1374760Y125070D01*
X1374459Y124937D01*
X1374180Y124775D01*
X1373922Y124582D01*
X1373685Y124360D01*
X1373473Y124114D01*
X1373289Y123849D01*
X1373133Y123566D01*
X1373005Y123263D01*
X1372905Y122942D01*
X1372834Y122602D01*
X1372790Y122244D01*
X1372775Y121867D01*
X1372789Y121467D01*
X1372836Y121090D01*
X1372914Y120735D01*
X1373024Y120403D01*
X1373166Y120093D01*
X1373340Y119806D01*
X1373546Y119542D01*
X1373784Y119299D01*
X1374051Y119083D01*
X1374345Y118895D01*
X1374667Y118736D01*
X1375015Y118605D01*
X1375390Y118503D01*
X1375791Y118430D01*
X1376220Y118385D01*
X1376676Y118369D01*
G37*
%LPD*%
G36*
X1382424Y172887D02*
X1365138Y172947D01*
X1365149Y175953D01*
X1377150Y180425D01*
X1377594Y180585D01*
X1378409Y180844D01*
X1379283Y181100D01*
X1379901Y181250D01*
X1379419Y181364D01*
X1378706Y181555D01*
X1377905Y181789D01*
X1377156Y182032D01*
X1365186Y186675D01*
X1365197Y189754D01*
X1382482Y189694D01*
X1382475Y187608D01*
X1370943Y187648D01*
X1368625Y187706D01*
X1367263Y187747D01*
X1368611Y187338D01*
X1370694Y186643D01*
X1382456Y182075D01*
X1382450Y180431D01*
X1370657Y176007D01*
X1369977Y175762D01*
X1369177Y175503D01*
X1368258Y175229D01*
X1367219Y174939D01*
X1368111Y174985D01*
X1369022Y175016D01*
X1369952Y175033D01*
X1370899Y175037D01*
X1382431Y174997D01*
X1382424Y172887D01*
G37*
G36*
X1375800Y137915D02*
X1365016Y137953D01*
X1365024Y140284D01*
X1375673Y140247D01*
X1376265Y140265D01*
X1376821Y140324D01*
X1377340Y140423D01*
X1377822Y140563D01*
X1378269Y140743D01*
X1378678Y140964D01*
X1379052Y141226D01*
X1379388Y141528D01*
X1379687Y141867D01*
X1379946Y142238D01*
X1380166Y142642D01*
X1380346Y143078D01*
X1380487Y143547D01*
X1380588Y144049D01*
X1380649Y144582D01*
X1380671Y145149D01*
X1380654Y145700D01*
X1380598Y146217D01*
X1380504Y146702D01*
X1380371Y147153D01*
X1380200Y147571D01*
X1379991Y147955D01*
X1379743Y148307D01*
X1379456Y148625D01*
X1379133Y148908D01*
X1378773Y149153D01*
X1378378Y149361D01*
X1377947Y149532D01*
X1377481Y149665D01*
X1376978Y149761D01*
X1376440Y149819D01*
X1375866Y149840D01*
X1365058Y149878D01*
X1365066Y152221D01*
X1376070Y152182D01*
X1376571Y152167D01*
X1377053Y152124D01*
X1377518Y152055D01*
X1377965Y151958D01*
X1378394Y151834D01*
X1378806Y151683D01*
X1379200Y151505D01*
X1379576Y151299D01*
X1379932Y151069D01*
X1380267Y150817D01*
X1380579Y150542D01*
X1380870Y150246D01*
X1381138Y149927D01*
X1381385Y149586D01*
X1381610Y149223D01*
X1381812Y148838D01*
X1381992Y148433D01*
X1382148Y148011D01*
X1382279Y147573D01*
X1382386Y147118D01*
X1382469Y146646D01*
X1382528Y146158D01*
X1382562Y145652D01*
X1382572Y145130D01*
X1382558Y144587D01*
X1382518Y144062D01*
X1382454Y143556D01*
X1382364Y143068D01*
X1382250Y142598D01*
X1382110Y142147D01*
X1381945Y141714D01*
X1381755Y141299D01*
X1381542Y140905D01*
X1381306Y140534D01*
X1381048Y140186D01*
X1380767Y139861D01*
X1380465Y139559D01*
X1380139Y139280D01*
X1379792Y139025D01*
X1379422Y138792D01*
X1379032Y138585D01*
X1378624Y138406D01*
X1378198Y138255D01*
X1377754Y138131D01*
X1377292Y138035D01*
X1376813Y137968D01*
X1376315Y137928D01*
X1375800Y137915D01*
G37*
G36*
X1376497Y88107D02*
X1375910Y88133D01*
X1375352Y88205D01*
X1374822Y88326D01*
X1374321Y88493D01*
X1373848Y88708D01*
X1373404Y88970D01*
X1372988Y89279D01*
X1372601Y89636D01*
X1372251Y90032D01*
X1371949Y90460D01*
X1371693Y90921D01*
X1371485Y91414D01*
X1371323Y91939D01*
X1371208Y92496D01*
X1371140Y93086D01*
X1371118Y93708D01*
X1371137Y94230D01*
X1371191Y94731D01*
X1371279Y95210D01*
X1371401Y95666D01*
X1371558Y96101D01*
X1371749Y96514D01*
X1371975Y96905D01*
X1372235Y97274D01*
X1366750Y96962D01*
X1366723Y89147D01*
X1364846Y89153D01*
X1364880Y98980D01*
X1374181Y99524D01*
X1374174Y97365D01*
X1373859Y96980D01*
X1373594Y96594D01*
X1373378Y96209D01*
X1373211Y95823D01*
X1373087Y95429D01*
X1372997Y95020D01*
X1372943Y94595D01*
X1372923Y94155D01*
X1372938Y93737D01*
X1372983Y93340D01*
X1373061Y92966D01*
X1373169Y92613D01*
X1373310Y92282D01*
X1373482Y91974D01*
X1373685Y91687D01*
X1373920Y91422D01*
X1374180Y91184D01*
X1374460Y90977D01*
X1374760Y90802D01*
X1375080Y90659D01*
X1375419Y90547D01*
X1375777Y90467D01*
X1376156Y90418D01*
X1376554Y90401D01*
X1377011Y90415D01*
X1377442Y90461D01*
X1377849Y90538D01*
X1378231Y90646D01*
X1378588Y90787D01*
X1378919Y90958D01*
X1379226Y91162D01*
X1379508Y91396D01*
X1379760Y91659D01*
X1379979Y91946D01*
X1380165Y92257D01*
X1380317Y92593D01*
X1380436Y92953D01*
X1380521Y93337D01*
X1380573Y93745D01*
X1380591Y94177D01*
X1380582Y94531D01*
X1380553Y94867D01*
X1380504Y95186D01*
X1380435Y95488D01*
X1380346Y95773D01*
X1380237Y96041D01*
X1380108Y96292D01*
X1379958Y96526D01*
X1379789Y96743D01*
X1379599Y96942D01*
X1379389Y97125D01*
X1379160Y97290D01*
X1378910Y97439D01*
X1378640Y97570D01*
X1378350Y97684D01*
X1378040Y97781D01*
X1378305Y100013D01*
X1378790Y99896D01*
X1379245Y99745D01*
X1379670Y99560D01*
X1380066Y99341D01*
X1380432Y99088D01*
X1380769Y98801D01*
X1381076Y98480D01*
X1381353Y98125D01*
X1381599Y97739D01*
X1381812Y97323D01*
X1381992Y96878D01*
X1382138Y96405D01*
X1382252Y95902D01*
X1382333Y95371D01*
X1382380Y94810D01*
X1382395Y94220D01*
X1382387Y93865D01*
X1382368Y93519D01*
X1382336Y93184D01*
X1382292Y92858D01*
X1382235Y92542D01*
X1382167Y92236D01*
X1381993Y91653D01*
X1381770Y91110D01*
X1381499Y90606D01*
X1381178Y90142D01*
X1380809Y89717D01*
X1380396Y89338D01*
X1379948Y89009D01*
X1379463Y88731D01*
X1378943Y88505D01*
X1378669Y88410D01*
X1378386Y88329D01*
X1378093Y88260D01*
X1377792Y88204D01*
X1377482Y88160D01*
X1377163Y88130D01*
X1376834Y88112D01*
X1376497Y88107D01*
G37*
G36*
X1471215Y199741D02*
X1468907Y199749D01*
X1468474Y199774D01*
X1468067Y199847D01*
X1467686Y199968D01*
X1467332Y200136D01*
X1467010Y200348D01*
X1466728Y200602D01*
X1466485Y200898D01*
X1466280Y201236D01*
X1466119Y201610D01*
X1466004Y202013D01*
X1465936Y202446D01*
X1465914Y202908D01*
X1465928Y203260D01*
X1465969Y203591D01*
X1466037Y203902D01*
X1466131Y204191D01*
X1466252Y204460D01*
X1466399Y204708D01*
X1466573Y204935D01*
X1466773Y205141D01*
X1466998Y205324D01*
X1467245Y205483D01*
X1467515Y205617D01*
X1467806Y205727D01*
X1468120Y205812D01*
X1468456Y205872D01*
X1468815Y205908D01*
X1469196Y205918D01*
X1471236Y205911D01*
X1471215Y199741D01*
G37*
%LPC*%
G36*
X1470381Y200414D02*
X1470398Y205244D01*
X1469211Y205248D01*
X1468922Y205240D01*
X1468650Y205213D01*
X1468396Y205167D01*
X1468160Y205102D01*
X1467941Y205018D01*
X1467740Y204915D01*
X1467556Y204793D01*
X1467389Y204653D01*
X1467241Y204494D01*
X1467113Y204318D01*
X1467004Y204126D01*
X1466915Y203916D01*
X1466846Y203689D01*
X1466796Y203445D01*
X1466765Y203184D01*
X1466755Y202905D01*
X1466771Y202537D01*
X1466821Y202193D01*
X1466906Y201875D01*
X1467026Y201582D01*
X1467178Y201317D01*
X1467360Y201086D01*
X1467572Y200887D01*
X1467813Y200721D01*
X1468081Y200590D01*
X1468368Y200495D01*
X1468677Y200439D01*
X1469006Y200419D01*
X1470381Y200414D01*
G37*
%LPD*%
G36*
X1477684Y199718D02*
X1476939Y199721D01*
X1476953Y203820D01*
X1476978Y204551D01*
X1477001Y204976D01*
X1473681Y199732D01*
X1472674Y199736D01*
X1472695Y205906D01*
X1473449Y205904D01*
X1473434Y201857D01*
X1473420Y201354D01*
X1473378Y200614D01*
X1476733Y205892D01*
X1477705Y205889D01*
X1477684Y199718D01*
G37*
G36*
X1481827Y199616D02*
X1481419Y199635D01*
X1481026Y199688D01*
X1480648Y199774D01*
X1480285Y199895D01*
X1479943Y200048D01*
X1479629Y200228D01*
X1479344Y200436D01*
X1479085Y200673D01*
X1479093Y202801D01*
X1481707Y202792D01*
X1481705Y202091D01*
X1479861Y202098D01*
X1479857Y200985D01*
X1480031Y200835D01*
X1480230Y200701D01*
X1480454Y200584D01*
X1480703Y200483D01*
X1480969Y200402D01*
X1481246Y200343D01*
X1481533Y200308D01*
X1481830Y200295D01*
X1482088Y200305D01*
X1482331Y200336D01*
X1482560Y200388D01*
X1482775Y200461D01*
X1482976Y200555D01*
X1483162Y200671D01*
X1483334Y200808D01*
X1483492Y200966D01*
X1483633Y201142D01*
X1483756Y201334D01*
X1483859Y201541D01*
X1483945Y201764D01*
X1484011Y202002D01*
X1484059Y202256D01*
X1484088Y202525D01*
X1484098Y202810D01*
X1484090Y203095D01*
X1484065Y203364D01*
X1484022Y203616D01*
X1483961Y203852D01*
X1483882Y204071D01*
X1483786Y204274D01*
X1483672Y204461D01*
X1483540Y204631D01*
X1483391Y204783D01*
X1483227Y204915D01*
X1483047Y205027D01*
X1482851Y205118D01*
X1482639Y205190D01*
X1482411Y205241D01*
X1482168Y205272D01*
X1481908Y205283D01*
X1481579Y205269D01*
X1481277Y205225D01*
X1481004Y205151D01*
X1480758Y205046D01*
X1480539Y204909D01*
X1480345Y204735D01*
X1480175Y204527D01*
X1480031Y204282D01*
X1479234Y204522D01*
X1479427Y204876D01*
X1479656Y205178D01*
X1479922Y205428D01*
X1480224Y205626D01*
X1480568Y205776D01*
X1480960Y205883D01*
X1481401Y205946D01*
X1481889Y205966D01*
X1482243Y205952D01*
X1482577Y205912D01*
X1482891Y205847D01*
X1483183Y205756D01*
X1483456Y205639D01*
X1483708Y205497D01*
X1483939Y205329D01*
X1484150Y205135D01*
X1484338Y204918D01*
X1484501Y204680D01*
X1484639Y204420D01*
X1484751Y204140D01*
X1484838Y203838D01*
X1484900Y203516D01*
X1484937Y203172D01*
X1484948Y202807D01*
X1484923Y202332D01*
X1484852Y201890D01*
X1484735Y201480D01*
X1484572Y201102D01*
X1484365Y200762D01*
X1484117Y200464D01*
X1483828Y200209D01*
X1483497Y199996D01*
X1483130Y199829D01*
X1482729Y199710D01*
X1482295Y199639D01*
X1482065Y199622D01*
X1481827Y199616D01*
G37*
G36*
X1469575Y225059D02*
X1469351Y225067D01*
X1469133Y225087D01*
X1468923Y225120D01*
X1468720Y225166D01*
X1468334Y225298D01*
X1467976Y225481D01*
X1467651Y225714D01*
X1467365Y225994D01*
X1467118Y226322D01*
X1466909Y226698D01*
X1467594Y227037D01*
X1467766Y226736D01*
X1467958Y226474D01*
X1468171Y226253D01*
X1468404Y226072D01*
X1468657Y225930D01*
X1468930Y225829D01*
X1469224Y225768D01*
X1469538Y225747D01*
X1469784Y225757D01*
X1470018Y225788D01*
X1470238Y225842D01*
X1470446Y225916D01*
X1470640Y226013D01*
X1470822Y226130D01*
X1470990Y226270D01*
X1471145Y226431D01*
X1471285Y226610D01*
X1471406Y226803D01*
X1471509Y227010D01*
X1471593Y227230D01*
X1471659Y227465D01*
X1471706Y227714D01*
X1471735Y227976D01*
X1471745Y228253D01*
X1471737Y228532D01*
X1471711Y228796D01*
X1471668Y229045D01*
X1471606Y229279D01*
X1471527Y229497D01*
X1471430Y229700D01*
X1471315Y229889D01*
X1471182Y230061D01*
X1471033Y230216D01*
X1470870Y230351D01*
X1470693Y230465D01*
X1470501Y230558D01*
X1470295Y230631D01*
X1470074Y230683D01*
X1469839Y230715D01*
X1469590Y230726D01*
X1469275Y230709D01*
X1468982Y230657D01*
X1468711Y230569D01*
X1468462Y230445D01*
X1468240Y230288D01*
X1468051Y230099D01*
X1467894Y229877D01*
X1467769Y229624D01*
X1466977Y229890D01*
X1467156Y230245D01*
X1467378Y230553D01*
X1467644Y230815D01*
X1467954Y231030D01*
X1468305Y231197D01*
X1468697Y231316D01*
X1468908Y231357D01*
X1469129Y231387D01*
X1469360Y231404D01*
X1469602Y231409D01*
X1469944Y231395D01*
X1470268Y231355D01*
X1470573Y231288D01*
X1470858Y231196D01*
X1471124Y231077D01*
X1471370Y230933D01*
X1471598Y230762D01*
X1471806Y230565D01*
X1471992Y230345D01*
X1472153Y230106D01*
X1472289Y229846D01*
X1472400Y229567D01*
X1472486Y229267D01*
X1472547Y228948D01*
X1472584Y228609D01*
X1472595Y228250D01*
X1472571Y227774D01*
X1472502Y227331D01*
X1472389Y226922D01*
X1472232Y226546D01*
X1472032Y226207D01*
X1471792Y225910D01*
X1471511Y225655D01*
X1471190Y225441D01*
X1470833Y225273D01*
X1470445Y225153D01*
X1470026Y225082D01*
X1469804Y225065D01*
X1469575Y225059D01*
G37*
G36*
X1476044Y225037D02*
X1475819Y225044D01*
X1475602Y225064D01*
X1475392Y225098D01*
X1475188Y225144D01*
X1474803Y225275D01*
X1474445Y225458D01*
X1474120Y225691D01*
X1473834Y225972D01*
X1473587Y226300D01*
X1473378Y226675D01*
X1474062Y227014D01*
X1474235Y226713D01*
X1474427Y226452D01*
X1474640Y226230D01*
X1474872Y226049D01*
X1475126Y225908D01*
X1475399Y225807D01*
X1475693Y225746D01*
X1476007Y225724D01*
X1476253Y225734D01*
X1476486Y225766D01*
X1476707Y225819D01*
X1476914Y225894D01*
X1477109Y225990D01*
X1477290Y226108D01*
X1477459Y226247D01*
X1477614Y226409D01*
X1477754Y226587D01*
X1477875Y226780D01*
X1477978Y226987D01*
X1478062Y227208D01*
X1478128Y227443D01*
X1478175Y227691D01*
X1478204Y227954D01*
X1478214Y228230D01*
X1478206Y228510D01*
X1478180Y228774D01*
X1478137Y229023D01*
X1478075Y229256D01*
X1477996Y229475D01*
X1477899Y229678D01*
X1477784Y229866D01*
X1477651Y230039D01*
X1477502Y230194D01*
X1477339Y230328D01*
X1477161Y230442D01*
X1476969Y230536D01*
X1476763Y230608D01*
X1476543Y230661D01*
X1476308Y230692D01*
X1476059Y230704D01*
X1475744Y230687D01*
X1475451Y230634D01*
X1475180Y230546D01*
X1474930Y230423D01*
X1474709Y230265D01*
X1474519Y230076D01*
X1474362Y229855D01*
X1474238Y229602D01*
X1473446Y229867D01*
X1473625Y230222D01*
X1473847Y230531D01*
X1474113Y230792D01*
X1474422Y231007D01*
X1474774Y231174D01*
X1475166Y231293D01*
X1475377Y231335D01*
X1475598Y231364D01*
X1475829Y231381D01*
X1476070Y231387D01*
X1476413Y231372D01*
X1476737Y231332D01*
X1477041Y231266D01*
X1477326Y231173D01*
X1477592Y231055D01*
X1477839Y230910D01*
X1478066Y230739D01*
X1478274Y230542D01*
X1478460Y230323D01*
X1478622Y230083D01*
X1478758Y229824D01*
X1478869Y229544D01*
X1478955Y229245D01*
X1479016Y228926D01*
X1479052Y228586D01*
X1479063Y228227D01*
X1479039Y227751D01*
X1478971Y227309D01*
X1478858Y226899D01*
X1478701Y226523D01*
X1478501Y226184D01*
X1478260Y225887D01*
X1477980Y225632D01*
X1477659Y225419D01*
X1477302Y225250D01*
X1476914Y225131D01*
X1476494Y225059D01*
X1476273Y225042D01*
X1476044Y225037D01*
G37*
G36*
X1482919Y225100D02*
X1482052Y225103D01*
X1479556Y231282D01*
X1480436Y231279D01*
X1482120Y226929D01*
X1482484Y225838D01*
X1482856Y226927D01*
X1484579Y231265D01*
X1485459Y231262D01*
X1482919Y225100D01*
G37*
G36*
X1482277Y174215D02*
X1481983Y174223D01*
X1481705Y174246D01*
X1481445Y174283D01*
X1481201Y174336D01*
X1480975Y174402D01*
X1480765Y174484D01*
X1480573Y174579D01*
X1480398Y174690D01*
X1480242Y174814D01*
X1480107Y174949D01*
X1479993Y175097D01*
X1479899Y175256D01*
X1479827Y175428D01*
X1479775Y175612D01*
X1479745Y175807D01*
X1479735Y176015D01*
X1479760Y176330D01*
X1479831Y176601D01*
X1479944Y176834D01*
X1480093Y177034D01*
X1480275Y177203D01*
X1480486Y177343D01*
X1480720Y177461D01*
X1480971Y177563D01*
X1481236Y177649D01*
X1481512Y177723D01*
X1482080Y177855D01*
X1482789Y178026D01*
X1483037Y178100D01*
X1483215Y178168D01*
X1483467Y178311D01*
X1483568Y178393D01*
X1483652Y178482D01*
X1483719Y178581D01*
X1483766Y178692D01*
X1483795Y178816D01*
X1483805Y178952D01*
X1483799Y179070D01*
X1483781Y179180D01*
X1483709Y179378D01*
X1483588Y179547D01*
X1483418Y179685D01*
X1483201Y179793D01*
X1482941Y179870D01*
X1482637Y179917D01*
X1482289Y179934D01*
X1481970Y179921D01*
X1481687Y179881D01*
X1481442Y179813D01*
X1481232Y179717D01*
X1481057Y179590D01*
X1480912Y179429D01*
X1480797Y179235D01*
X1480713Y179007D01*
X1479890Y179154D01*
X1480024Y179513D01*
X1480107Y179671D01*
X1480199Y179815D01*
X1480302Y179945D01*
X1480416Y180060D01*
X1480540Y180161D01*
X1480674Y180248D01*
X1480821Y180323D01*
X1480983Y180388D01*
X1481354Y180487D01*
X1481787Y180546D01*
X1482282Y180565D01*
X1482556Y180557D01*
X1482814Y180536D01*
X1483056Y180502D01*
X1483281Y180454D01*
X1483489Y180393D01*
X1483682Y180318D01*
X1483857Y180231D01*
X1484017Y180129D01*
X1484159Y180016D01*
X1484281Y179891D01*
X1484385Y179755D01*
X1484470Y179608D01*
X1484536Y179449D01*
X1484583Y179279D01*
X1484610Y179098D01*
X1484619Y178905D01*
X1484611Y178737D01*
X1484589Y178579D01*
X1484552Y178431D01*
X1484501Y178293D01*
X1484358Y178043D01*
X1484164Y177828D01*
X1483905Y177639D01*
X1483565Y177468D01*
X1483098Y177308D01*
X1482454Y177148D01*
X1481687Y176971D01*
X1481365Y176879D01*
X1481091Y176768D01*
X1480869Y176629D01*
X1480702Y176458D01*
X1480641Y176357D01*
X1480598Y176242D01*
X1480572Y176112D01*
X1480562Y175968D01*
X1480569Y175837D01*
X1480589Y175715D01*
X1480623Y175600D01*
X1480671Y175494D01*
X1480808Y175306D01*
X1481000Y175150D01*
X1481242Y175027D01*
X1481532Y174939D01*
X1481867Y174886D01*
X1482249Y174867D01*
X1482621Y174882D01*
X1482951Y174930D01*
X1483241Y175010D01*
X1483489Y175124D01*
X1483698Y175272D01*
X1483867Y175457D01*
X1483997Y175679D01*
X1484088Y175938D01*
X1484897Y175773D01*
X1484844Y175584D01*
X1484777Y175406D01*
X1484694Y175241D01*
X1484597Y175088D01*
X1484485Y174948D01*
X1484358Y174820D01*
X1484216Y174704D01*
X1484060Y174600D01*
X1483889Y174509D01*
X1483703Y174430D01*
X1483502Y174363D01*
X1483287Y174309D01*
X1483057Y174267D01*
X1482812Y174237D01*
X1482552Y174220D01*
X1482277Y174215D01*
G37*
G36*
X1475866Y174237D02*
X1475642Y174244D01*
X1475425Y174265D01*
X1475215Y174298D01*
X1475011Y174344D01*
X1474625Y174475D01*
X1474267Y174659D01*
X1473942Y174892D01*
X1473656Y175172D01*
X1473409Y175500D01*
X1473201Y175875D01*
X1473885Y176215D01*
X1474057Y175913D01*
X1474250Y175652D01*
X1474462Y175431D01*
X1474695Y175249D01*
X1474948Y175108D01*
X1475222Y175007D01*
X1475515Y174946D01*
X1475829Y174925D01*
X1476076Y174935D01*
X1476309Y174966D01*
X1476530Y175019D01*
X1476737Y175094D01*
X1476931Y175190D01*
X1477113Y175308D01*
X1477281Y175448D01*
X1477437Y175609D01*
X1477576Y175788D01*
X1477698Y175981D01*
X1477800Y176187D01*
X1477885Y176408D01*
X1477950Y176643D01*
X1477998Y176892D01*
X1478026Y177154D01*
X1478037Y177431D01*
X1478029Y177710D01*
X1478003Y177974D01*
X1477959Y178223D01*
X1477898Y178457D01*
X1477818Y178675D01*
X1477721Y178878D01*
X1477606Y179066D01*
X1477474Y179239D01*
X1477325Y179394D01*
X1477161Y179529D01*
X1476984Y179642D01*
X1476792Y179736D01*
X1476586Y179809D01*
X1476366Y179861D01*
X1476131Y179893D01*
X1475882Y179904D01*
X1475567Y179887D01*
X1475273Y179835D01*
X1475002Y179747D01*
X1474753Y179623D01*
X1474531Y179466D01*
X1474342Y179276D01*
X1474185Y179055D01*
X1474061Y178802D01*
X1473269Y179068D01*
X1473447Y179423D01*
X1473670Y179731D01*
X1473935Y179992D01*
X1474245Y180207D01*
X1474596Y180375D01*
X1474988Y180494D01*
X1475199Y180535D01*
X1475420Y180564D01*
X1475652Y180582D01*
X1475893Y180587D01*
X1476236Y180573D01*
X1476559Y180532D01*
X1476864Y180466D01*
X1477149Y180373D01*
X1477415Y180255D01*
X1477662Y180110D01*
X1477889Y179940D01*
X1478097Y179743D01*
X1478283Y179523D01*
X1478444Y179283D01*
X1478580Y179024D01*
X1478691Y178744D01*
X1478778Y178445D01*
X1478839Y178126D01*
X1478875Y177787D01*
X1478886Y177428D01*
X1478862Y176952D01*
X1478794Y176509D01*
X1478681Y176100D01*
X1478523Y175723D01*
X1478323Y175385D01*
X1478083Y175088D01*
X1477802Y174832D01*
X1477482Y174619D01*
X1477125Y174451D01*
X1476737Y174331D01*
X1476317Y174260D01*
X1476096Y174242D01*
X1475866Y174237D01*
G37*
G36*
X1472126Y174338D02*
X1468172Y174352D01*
X1468174Y175035D01*
X1471292Y175024D01*
X1471311Y180511D01*
X1472148Y180508D01*
X1472126Y174338D01*
G37*
G36*
X1478506Y148915D02*
X1476198Y148923D01*
X1475765Y148949D01*
X1475358Y149021D01*
X1474977Y149142D01*
X1474623Y149310D01*
X1474302Y149522D01*
X1474019Y149777D01*
X1473776Y150073D01*
X1473572Y150411D01*
X1473410Y150784D01*
X1473295Y151187D01*
X1473227Y151620D01*
X1473205Y152082D01*
X1473220Y152434D01*
X1473261Y152766D01*
X1473329Y153076D01*
X1473423Y153365D01*
X1473543Y153634D01*
X1473691Y153882D01*
X1473864Y154109D01*
X1474065Y154315D01*
X1474290Y154499D01*
X1474537Y154657D01*
X1474806Y154792D01*
X1475098Y154901D01*
X1475412Y154986D01*
X1475748Y155046D01*
X1476106Y155082D01*
X1476487Y155093D01*
X1478528Y155086D01*
X1478506Y148915D01*
G37*
%LPC*%
G36*
X1477672Y149588D02*
X1477689Y154419D01*
X1476502Y154423D01*
X1476213Y154414D01*
X1475942Y154387D01*
X1475688Y154341D01*
X1475451Y154276D01*
X1475232Y154192D01*
X1475031Y154089D01*
X1474847Y153967D01*
X1474681Y153827D01*
X1474533Y153668D01*
X1474405Y153493D01*
X1474296Y153300D01*
X1474207Y153090D01*
X1474137Y152863D01*
X1474087Y152619D01*
X1474057Y152358D01*
X1474046Y152080D01*
X1474062Y151711D01*
X1474113Y151368D01*
X1474198Y151049D01*
X1474317Y150756D01*
X1474469Y150492D01*
X1474651Y150260D01*
X1474863Y150061D01*
X1475105Y149895D01*
X1475372Y149764D01*
X1475660Y149670D01*
X1475968Y149613D01*
X1476297Y149593D01*
X1477672Y149588D01*
G37*
%LPD*%
G36*
X1472756Y148935D02*
X1471889Y148938D01*
X1471186Y150745D01*
X1468374Y150755D01*
X1467663Y148953D01*
X1466809Y148956D01*
X1469309Y155118D01*
X1470259Y155114D01*
X1472756Y148935D01*
G37*
%LPC*%
G36*
X1470934Y151398D02*
X1470153Y153429D01*
X1469966Y153947D01*
X1469832Y154363D01*
X1469793Y154485D01*
X1469673Y154122D01*
X1469426Y153440D01*
X1468626Y151407D01*
X1470934Y151398D01*
G37*
%LPD*%
G36*
X1482189Y148815D02*
X1481894Y148823D01*
X1481616Y148846D01*
X1481356Y148884D01*
X1481112Y148936D01*
X1480886Y149002D01*
X1480677Y149084D01*
X1480485Y149180D01*
X1480309Y149290D01*
X1480153Y149414D01*
X1480018Y149549D01*
X1479904Y149697D01*
X1479811Y149857D01*
X1479738Y150028D01*
X1479687Y150212D01*
X1479656Y150407D01*
X1479646Y150615D01*
X1479671Y150930D01*
X1479742Y151201D01*
X1479856Y151434D01*
X1480005Y151634D01*
X1480186Y151803D01*
X1480398Y151944D01*
X1480632Y152061D01*
X1480882Y152163D01*
X1481147Y152250D01*
X1481424Y152323D01*
X1481991Y152455D01*
X1482700Y152626D01*
X1482949Y152701D01*
X1483127Y152768D01*
X1483378Y152911D01*
X1483479Y152993D01*
X1483563Y153082D01*
X1483630Y153181D01*
X1483677Y153292D01*
X1483706Y153416D01*
X1483716Y153552D01*
X1483710Y153670D01*
X1483693Y153780D01*
X1483620Y153978D01*
X1483499Y154147D01*
X1483329Y154285D01*
X1483113Y154393D01*
X1482852Y154471D01*
X1482548Y154518D01*
X1482200Y154534D01*
X1481881Y154521D01*
X1481599Y154481D01*
X1481353Y154413D01*
X1481144Y154317D01*
X1480968Y154190D01*
X1480823Y154029D01*
X1480709Y153835D01*
X1480625Y153607D01*
X1479802Y153754D01*
X1479935Y154113D01*
X1480018Y154271D01*
X1480111Y154415D01*
X1480214Y154545D01*
X1480327Y154660D01*
X1480451Y154761D01*
X1480585Y154849D01*
X1480732Y154923D01*
X1480895Y154988D01*
X1481266Y155088D01*
X1481699Y155146D01*
X1482193Y155165D01*
X1482468Y155157D01*
X1482726Y155136D01*
X1482967Y155102D01*
X1483192Y155054D01*
X1483401Y154993D01*
X1483593Y154918D01*
X1483769Y154831D01*
X1483928Y154730D01*
X1484070Y154616D01*
X1484193Y154491D01*
X1484297Y154355D01*
X1484381Y154208D01*
X1484447Y154049D01*
X1484494Y153879D01*
X1484522Y153698D01*
X1484531Y153506D01*
X1484523Y153338D01*
X1484500Y153179D01*
X1484464Y153031D01*
X1484412Y152893D01*
X1484270Y152643D01*
X1484076Y152428D01*
X1483816Y152239D01*
X1483477Y152069D01*
X1483009Y151908D01*
X1482365Y151748D01*
X1481598Y151571D01*
X1481276Y151480D01*
X1481002Y151368D01*
X1480780Y151229D01*
X1480613Y151058D01*
X1480553Y150957D01*
X1480509Y150842D01*
X1480483Y150712D01*
X1480474Y150568D01*
X1480480Y150438D01*
X1480500Y150315D01*
X1480534Y150201D01*
X1480582Y150094D01*
X1480719Y149906D01*
X1480911Y149750D01*
X1481154Y149627D01*
X1481443Y149539D01*
X1481778Y149486D01*
X1482160Y149467D01*
X1482532Y149482D01*
X1482862Y149530D01*
X1483152Y149611D01*
X1483401Y149724D01*
X1483609Y149872D01*
X1483778Y150057D01*
X1483908Y150279D01*
X1483999Y150538D01*
X1484809Y150373D01*
X1484756Y150184D01*
X1484688Y150006D01*
X1484605Y149841D01*
X1484508Y149689D01*
X1484396Y149548D01*
X1484269Y149420D01*
X1484128Y149304D01*
X1483971Y149201D01*
X1483800Y149109D01*
X1483614Y149030D01*
X1483414Y148964D01*
X1483198Y148909D01*
X1482968Y148867D01*
X1482723Y148837D01*
X1482463Y148820D01*
X1482189Y148815D01*
G37*
G36*
X1478418Y123515D02*
X1476110Y123523D01*
X1475676Y123549D01*
X1475269Y123622D01*
X1474889Y123742D01*
X1474535Y123910D01*
X1474213Y124123D01*
X1473931Y124377D01*
X1473687Y124673D01*
X1473483Y125011D01*
X1473321Y125384D01*
X1473207Y125787D01*
X1473138Y126220D01*
X1473117Y126683D01*
X1473131Y127035D01*
X1473172Y127366D01*
X1473240Y127676D01*
X1473334Y127966D01*
X1473455Y128234D01*
X1473602Y128482D01*
X1473776Y128709D01*
X1473976Y128915D01*
X1474201Y129099D01*
X1474448Y129258D01*
X1474717Y129392D01*
X1475009Y129501D01*
X1475323Y129586D01*
X1475659Y129646D01*
X1476018Y129682D01*
X1476398Y129693D01*
X1478439Y129686D01*
X1478418Y123515D01*
G37*
%LPC*%
G36*
X1477584Y124188D02*
X1477600Y129019D01*
X1476414Y129023D01*
X1476125Y129014D01*
X1475853Y128987D01*
X1475599Y128941D01*
X1475363Y128876D01*
X1475144Y128792D01*
X1474942Y128689D01*
X1474758Y128568D01*
X1474592Y128427D01*
X1474444Y128268D01*
X1474316Y128093D01*
X1474207Y127900D01*
X1474118Y127690D01*
X1474049Y127463D01*
X1473999Y127219D01*
X1473968Y126958D01*
X1473957Y126680D01*
X1473973Y126311D01*
X1474024Y125968D01*
X1474109Y125649D01*
X1474229Y125356D01*
X1474381Y125092D01*
X1474563Y124860D01*
X1474774Y124661D01*
X1475016Y124495D01*
X1475283Y124364D01*
X1475571Y124270D01*
X1475879Y124213D01*
X1476208Y124193D01*
X1477584Y124188D01*
G37*
%LPD*%
G36*
X1472667Y123536D02*
X1471800Y123539D01*
X1471097Y125345D01*
X1468285Y125355D01*
X1467574Y123553D01*
X1466720Y123556D01*
X1469220Y129718D01*
X1470171Y129715D01*
X1472667Y123536D01*
G37*
%LPC*%
G36*
X1470845Y125999D02*
X1470064Y128029D01*
X1469877Y128547D01*
X1469743Y128963D01*
X1469704Y129086D01*
X1469585Y128723D01*
X1469337Y128040D01*
X1468537Y126007D01*
X1470845Y125999D01*
G37*
%LPD*%
G36*
X1484921Y123493D02*
X1483997Y123496D01*
X1482114Y126200D01*
X1480252Y123509D01*
X1479328Y123512D01*
X1481630Y126741D01*
X1479529Y129682D01*
X1480453Y129679D01*
X1482113Y127251D01*
X1483839Y129667D01*
X1484763Y129664D01*
X1482585Y126707D01*
X1484921Y123493D01*
G37*
G36*
X1475600Y98038D02*
X1475376Y98045D01*
X1475159Y98065D01*
X1474949Y98098D01*
X1474745Y98145D01*
X1474359Y98276D01*
X1474001Y98459D01*
X1473676Y98692D01*
X1473390Y98973D01*
X1473143Y99300D01*
X1472935Y99676D01*
X1473619Y100015D01*
X1473791Y99714D01*
X1473984Y99452D01*
X1474196Y99231D01*
X1474429Y99050D01*
X1474682Y98909D01*
X1474956Y98807D01*
X1475249Y98746D01*
X1475563Y98725D01*
X1475810Y98735D01*
X1476043Y98767D01*
X1476264Y98820D01*
X1476471Y98894D01*
X1476665Y98991D01*
X1476847Y99109D01*
X1477015Y99248D01*
X1477171Y99409D01*
X1477310Y99588D01*
X1477432Y99781D01*
X1477534Y99988D01*
X1477619Y100209D01*
X1477684Y100443D01*
X1477732Y100692D01*
X1477760Y100955D01*
X1477771Y101231D01*
X1477763Y101510D01*
X1477737Y101774D01*
X1477693Y102023D01*
X1477632Y102257D01*
X1477552Y102475D01*
X1477455Y102679D01*
X1477340Y102867D01*
X1477208Y103040D01*
X1477059Y103195D01*
X1476895Y103329D01*
X1476718Y103443D01*
X1476526Y103536D01*
X1476320Y103609D01*
X1476100Y103661D01*
X1475865Y103693D01*
X1475616Y103704D01*
X1475301Y103688D01*
X1475007Y103635D01*
X1474736Y103547D01*
X1474487Y103424D01*
X1474265Y103266D01*
X1474076Y103077D01*
X1473919Y102856D01*
X1473795Y102603D01*
X1473003Y102868D01*
X1473181Y103223D01*
X1473404Y103531D01*
X1473669Y103793D01*
X1473979Y104008D01*
X1474330Y104175D01*
X1474722Y104294D01*
X1474933Y104336D01*
X1475154Y104365D01*
X1475386Y104382D01*
X1475627Y104387D01*
X1475970Y104373D01*
X1476293Y104333D01*
X1476598Y104266D01*
X1476883Y104174D01*
X1477149Y104055D01*
X1477396Y103911D01*
X1477623Y103740D01*
X1477831Y103543D01*
X1478017Y103324D01*
X1478178Y103084D01*
X1478314Y102824D01*
X1478425Y102545D01*
X1478512Y102246D01*
X1478573Y101926D01*
X1478609Y101587D01*
X1478620Y101228D01*
X1478596Y100752D01*
X1478528Y100309D01*
X1478415Y99900D01*
X1478257Y99524D01*
X1478057Y99185D01*
X1477817Y98888D01*
X1477536Y98633D01*
X1477216Y98419D01*
X1476859Y98251D01*
X1476471Y98131D01*
X1476051Y98060D01*
X1475830Y98043D01*
X1475600Y98038D01*
G37*
G36*
X1484832Y98093D02*
X1483908Y98096D01*
X1482025Y100800D01*
X1480164Y98109D01*
X1479240Y98112D01*
X1481541Y101341D01*
X1479441Y104282D01*
X1480365Y104279D01*
X1482025Y101851D01*
X1483750Y104267D01*
X1484674Y104264D01*
X1482496Y101307D01*
X1484832Y98093D01*
G37*
G36*
X1471860Y98138D02*
X1467906Y98152D01*
X1467908Y98835D01*
X1471026Y98824D01*
X1471045Y104311D01*
X1471882Y104309D01*
X1471860Y98138D01*
G37*
G36*
X1478240Y72716D02*
X1475932Y72724D01*
X1475499Y72749D01*
X1475092Y72822D01*
X1474711Y72942D01*
X1474357Y73110D01*
X1474036Y73323D01*
X1473753Y73577D01*
X1473510Y73873D01*
X1473306Y74211D01*
X1473144Y74584D01*
X1473029Y74988D01*
X1472961Y75420D01*
X1472939Y75883D01*
X1472954Y76235D01*
X1472995Y76566D01*
X1473063Y76876D01*
X1473157Y77166D01*
X1473277Y77435D01*
X1473425Y77682D01*
X1473598Y77909D01*
X1473799Y78116D01*
X1474024Y78299D01*
X1474271Y78458D01*
X1474540Y78592D01*
X1474832Y78702D01*
X1475146Y78786D01*
X1475482Y78847D01*
X1475840Y78882D01*
X1476221Y78893D01*
X1478262Y78886D01*
X1478240Y72716D01*
G37*
%LPC*%
G36*
X1477406Y73389D02*
X1477423Y78219D01*
X1476236Y78223D01*
X1475947Y78215D01*
X1475676Y78187D01*
X1475422Y78141D01*
X1475185Y78076D01*
X1474966Y77992D01*
X1474765Y77890D01*
X1474581Y77768D01*
X1474415Y77627D01*
X1474267Y77469D01*
X1474139Y77293D01*
X1474030Y77100D01*
X1473941Y76890D01*
X1473871Y76664D01*
X1473821Y76419D01*
X1473791Y76158D01*
X1473780Y75880D01*
X1473796Y75512D01*
X1473847Y75168D01*
X1473932Y74850D01*
X1474051Y74557D01*
X1474203Y74292D01*
X1474385Y74060D01*
X1474597Y73862D01*
X1474839Y73695D01*
X1475106Y73564D01*
X1475394Y73470D01*
X1475702Y73413D01*
X1476031Y73393D01*
X1477406Y73389D01*
G37*
%LPD*%
G36*
X1470024Y72657D02*
X1469766Y72670D01*
X1469524Y72709D01*
X1469299Y72774D01*
X1469090Y72864D01*
X1468898Y72979D01*
X1468721Y73120D01*
X1468561Y73286D01*
X1468417Y73477D01*
X1468290Y73692D01*
X1468181Y73931D01*
X1468088Y74192D01*
X1468012Y74476D01*
X1467953Y74782D01*
X1467912Y75112D01*
X1467888Y75464D01*
X1467880Y75839D01*
X1467890Y76220D01*
X1467915Y76577D01*
X1467957Y76910D01*
X1468015Y77218D01*
X1468089Y77503D01*
X1468179Y77763D01*
X1468285Y77999D01*
X1468408Y78211D01*
X1468547Y78398D01*
X1468704Y78561D01*
X1468879Y78698D01*
X1469072Y78810D01*
X1469282Y78897D01*
X1469510Y78958D01*
X1469756Y78995D01*
X1470020Y79007D01*
X1470291Y78993D01*
X1470543Y78955D01*
X1470776Y78893D01*
X1470990Y78805D01*
X1471185Y78693D01*
X1471361Y78556D01*
X1471519Y78395D01*
X1471657Y78208D01*
X1471778Y77997D01*
X1471883Y77762D01*
X1471971Y77501D01*
X1472043Y77215D01*
X1472099Y76905D01*
X1472138Y76569D01*
X1472161Y76209D01*
X1472168Y75824D01*
X1472158Y75447D01*
X1472132Y75094D01*
X1472089Y74763D01*
X1472029Y74456D01*
X1471953Y74173D01*
X1471861Y73912D01*
X1471751Y73675D01*
X1471625Y73461D01*
X1471483Y73272D01*
X1471324Y73108D01*
X1471148Y72969D01*
X1470956Y72856D01*
X1470748Y72768D01*
X1470523Y72706D01*
X1470282Y72669D01*
X1470024Y72657D01*
G37*
%LPC*%
G36*
X1470017Y73301D02*
X1470187Y73309D01*
X1470344Y73337D01*
X1470490Y73385D01*
X1470624Y73451D01*
X1470746Y73536D01*
X1470857Y73640D01*
X1470955Y73763D01*
X1471042Y73906D01*
X1471118Y74069D01*
X1471184Y74254D01*
X1471240Y74461D01*
X1471286Y74690D01*
X1471348Y75214D01*
X1471371Y75827D01*
X1471353Y76456D01*
X1471295Y76990D01*
X1471252Y77221D01*
X1471198Y77429D01*
X1471134Y77613D01*
X1471060Y77773D01*
X1470975Y77911D01*
X1470877Y78032D01*
X1470766Y78134D01*
X1470642Y78217D01*
X1470505Y78283D01*
X1470355Y78329D01*
X1470193Y78358D01*
X1470018Y78367D01*
X1469846Y78359D01*
X1469688Y78331D01*
X1469542Y78285D01*
X1469408Y78220D01*
X1469287Y78136D01*
X1469178Y78033D01*
X1469081Y77911D01*
X1468997Y77771D01*
X1468924Y77610D01*
X1468861Y77426D01*
X1468807Y77218D01*
X1468763Y76988D01*
X1468703Y76458D01*
X1468682Y75836D01*
X1468700Y75234D01*
X1468759Y74715D01*
X1468804Y74487D01*
X1468859Y74279D01*
X1468924Y74092D01*
X1468999Y73926D01*
X1469086Y73780D01*
X1469184Y73653D01*
X1469293Y73546D01*
X1469415Y73458D01*
X1469548Y73390D01*
X1469693Y73341D01*
X1469849Y73311D01*
X1470017Y73301D01*
G37*
%LPD*%
G36*
X1484927Y72692D02*
X1484060Y72695D01*
X1483357Y74502D01*
X1480546Y74512D01*
X1479834Y72710D01*
X1478980Y72713D01*
X1481480Y78875D01*
X1482431Y78872D01*
X1484927Y72692D01*
G37*
%LPC*%
G36*
X1483105Y75155D02*
X1482324Y77186D01*
X1482138Y77704D01*
X1482003Y78120D01*
X1481964Y78242D01*
X1481845Y77879D01*
X1481597Y77197D01*
X1480797Y75164D01*
X1483105Y75155D01*
G37*
%LPD*%
G36*
X1481652Y47304D02*
X1480907Y47306D01*
X1480921Y51405D01*
X1480946Y52136D01*
X1480969Y52561D01*
X1477649Y47318D01*
X1476642Y47321D01*
X1476663Y53491D01*
X1477417Y53489D01*
X1477402Y49442D01*
X1477388Y48939D01*
X1477346Y48199D01*
X1480701Y53477D01*
X1481673Y53474D01*
X1481652Y47304D01*
G37*
G36*
X1473598Y47332D02*
X1472766Y47335D01*
X1472785Y52822D01*
X1470665Y52829D01*
X1470668Y53512D01*
X1475739Y53495D01*
X1475736Y52812D01*
X1473617Y52819D01*
X1473598Y47332D01*
G37*
G36*
X1484028Y47295D02*
X1483192Y47298D01*
X1483214Y53469D01*
X1484050Y53466D01*
X1484028Y47295D01*
G37*
D10*
X1290431Y544587D02*
X1389469Y542513D01*
X1465653Y540917D01*
X1564691Y538843D01*
X1553919Y24605D02*
X1279659Y30350D01*
X1290431Y544587D01*
X1564691Y538843D02*
X1553919Y24605D01*
X1388671Y504421D02*
X1389469Y542513D01*
X1388671Y504421D02*
X1464855Y502825D01*
X1465653Y540917D01*
X1506867Y82754D02*
X1506069Y44662D01*
X1480674Y45194D01*
X1442583Y45992D01*
X1443115Y71386D01*
X1417720Y71918D01*
X1417188Y46524D01*
X1391794Y47056D01*
X1392326Y72450D01*
X1366931Y72982D01*
X1366399Y47588D01*
X1480674Y45194D02*
X1481472Y83285D01*
X1366399Y47588D02*
X1341005Y48119D01*
X1341803Y86211D01*
X1510212Y34504D02*
X1510921Y237703D01*
X1352172Y238257D01*
X1351463Y35058D01*
X1510212Y34504D01*
M02*
