G04 EAGLE Gerber RS-274X export*
G75*
%MOMM*%
%FSLAX34Y34*%
%LPD*%
%INBottom Copper*%
%IPPOS*%
%AMOC8*
5,1,8,0,0,1.08239X$1,22.5*%
G01*
G04 Define Apertures*
%ADD10C,1.930400*%
%ADD11C,1.930400*%
%ADD12C,1.778000*%
%ADD13C,1.016000*%
D10*
X1291014Y87275D03*
X1291546Y112669D03*
X1292078Y138064D03*
X1292610Y163458D03*
X1293142Y188853D03*
X1293674Y214247D03*
X1294206Y239642D03*
X1294738Y265036D03*
X1295270Y290430D03*
X1295801Y315825D03*
X1296333Y341219D03*
X1296865Y366614D03*
X1297397Y392008D03*
D11*
X1307579Y417200D02*
X1288279Y417605D01*
D10*
X1298461Y442797D03*
X1544958Y81956D03*
X1545490Y107350D03*
X1546022Y132744D03*
X1546554Y158139D03*
X1547086Y183533D03*
X1547618Y208928D03*
X1548150Y234322D03*
X1548682Y259717D03*
X1549214Y285111D03*
X1549746Y310505D03*
X1550278Y335900D03*
X1550810Y361294D03*
X1551342Y386689D03*
D11*
X1542224Y412285D02*
X1561523Y411881D01*
D10*
X1552405Y437478D03*
D12*
X1498177Y225047D03*
X1498088Y199647D03*
X1497999Y174247D03*
X1497911Y148848D03*
X1497822Y123448D03*
X1497733Y98048D03*
X1497645Y72648D03*
X1497556Y47248D03*
D10*
X1366776Y491379D03*
X1392175Y491645D03*
X1417573Y491911D03*
X1442972Y492177D03*
X1468371Y492443D03*
D13*
X1497999Y174247D02*
X1460500Y136748D01*
X1524000Y101600D02*
X1529750Y107350D01*
X1545490Y107350D01*
X1460500Y136748D02*
X1460500Y19032D01*
X1524000Y19032D02*
X1524000Y101600D01*
X1524000Y19032D02*
X1460500Y19032D01*
X1497911Y148848D02*
X1532596Y183533D01*
X1547086Y183533D01*
X1498177Y225047D02*
X1498177Y444077D01*
X1498600Y444500D01*
X1545383Y444500D01*
X1552405Y437478D01*
X1366776Y462024D02*
X1366776Y491379D01*
X1366776Y462024D02*
X1384300Y444500D01*
X1473200Y444500D01*
X1521992Y493292D01*
X1552405Y462878D02*
X1552405Y437478D01*
X1552405Y462878D02*
X1521992Y493292D01*
X1498088Y199647D02*
X1349753Y199647D01*
X1333500Y215900D01*
X1333500Y419100D01*
X1299627Y419100D01*
X1297929Y417403D01*
X1333500Y419100D02*
X1333500Y533400D01*
X1389598Y491645D02*
X1392175Y491645D01*
X1389598Y491645D02*
X1389598Y517045D01*
X1373243Y533400D01*
X1333500Y533400D01*
X1442972Y492177D02*
X1447800Y497005D01*
X1447800Y520700D01*
X1562100Y520700D01*
X1590617Y492183D01*
X1590617Y222840D01*
X1575816Y208040D01*
X1575816Y187401D01*
X1546554Y158139D01*
X1417573Y491911D02*
X1417573Y541273D01*
X1422400Y546100D01*
X1415540Y552960D01*
X1264160Y552960D01*
X1244600Y533400D01*
X1244600Y27940D01*
X1270000Y2540D01*
X1574800Y2540D01*
X1574800Y103967D01*
X1546022Y132744D01*
M02*
