M48
;GenerationSoftware,Autodesk,EAGLE,9.7.0*%
;CreationDate,2023-03-09T19:13:07Z*%
FMAT,2
ICI,OFF
METRIC,TZ,000.000
T1C1.016
%
G90
M71
T1
X129101Y8727
X129155Y11267
X129208Y13806
X129261Y16346
X129314Y18885
X129367Y21425
X129421Y23964
X129474Y26504
X129527Y29043
X129580Y31582
X129633Y34122
X129687Y36661
X129740Y39201
X129793Y41740
X129846Y44280
X154496Y8196
X154549Y10735
X154602Y13274
X154655Y15814
X154709Y18353
X154762Y20893
X154815Y23432
X154868Y25972
X154921Y28511
X154975Y31051
X155028Y33590
X155081Y36129
X155134Y38669
X155187Y41208
X155241Y43748
X149818Y22505
X149809Y19965
X149800Y17425
X149791Y14885
X149782Y12345
X149773Y9805
X149764Y7265
X149756Y4725
X136678Y49138
X139217Y49164
X141757Y49191
X144297Y49218
X146837Y49244
X124460Y51030
X124460Y48030
M30