M48
;GenerationSoftware,Autodesk,EAGLE,9.7.0*%
;CreationDate,2023-03-05T00:13:32Z*%
FMAT,2
ICI,OFF
METRIC,TZ,000.000
T1C1.016
%
G90
M71
T1
X156787Y7728
X156844Y10267
X156902Y12806
X156959Y15346
X157017Y17885
X157075Y20424
X157132Y22964
X157190Y25503
X157248Y28042
X157305Y30582
X157363Y33121
X157420Y35660
X157478Y38200
X157536Y40739
X157593Y43278
X131393Y8304
X131451Y10843
X131508Y13383
X131566Y15922
X131624Y18461
X131681Y21001
X131739Y23540
X131796Y26079
X131854Y28619
X131912Y31158
X131969Y33697
X132027Y36237
X132085Y38776
X132142Y41315
X132200Y43855
X150365Y33938
X150369Y31398
X150374Y28858
X150378Y26318
X150383Y23778
X150387Y21238
X150392Y18698
X150396Y16158
M30