G04 EAGLE Gerber RS-274X export*
G75*
%MOMM*%
%FSLAX34Y34*%
%LPD*%
%INTop Copper*%
%IPPOS*%
%AMOC8*
5,1,8,0,0,1.08239X$1,22.5*%
G01*
G04 Define Apertures*
%ADD10C,1.930400*%
%ADD11C,1.930400*%
%ADD12C,1.778000*%
%ADD13C,1.016000*%
D10*
X1567866Y77276D03*
X1568442Y102669D03*
X1569018Y128063D03*
X1569594Y153456D03*
X1570171Y178850D03*
X1570747Y204243D03*
X1571323Y229636D03*
X1571899Y255030D03*
X1572476Y280423D03*
X1573052Y305817D03*
X1573628Y331210D03*
X1574204Y356604D03*
X1574781Y381997D03*
D11*
X1585006Y407172D02*
X1565707Y407610D01*
D10*
X1575933Y432784D03*
X1313931Y83038D03*
X1314507Y108432D03*
X1315084Y133825D03*
X1315660Y159219D03*
X1316236Y184612D03*
X1316812Y210006D03*
X1317389Y235399D03*
X1317965Y260792D03*
X1318541Y286186D03*
X1319117Y311579D03*
X1319694Y336973D03*
X1320270Y362366D03*
X1320846Y387760D03*
D11*
X1331072Y412934D02*
X1311773Y413372D01*
D10*
X1321999Y438547D03*
D12*
X1503649Y339377D03*
X1503694Y313977D03*
X1503738Y288577D03*
X1503782Y263177D03*
X1503827Y237777D03*
X1503871Y212377D03*
X1503915Y186977D03*
X1503960Y161577D03*
D13*
X1503693Y313977D02*
X1503694Y313977D01*
M02*
