G04 EAGLE Gerber RS-274X export*
G75*
%MOMM*%
%FSLAX34Y34*%
%LPD*%
%INSilkscreen Bottom*%
%IPPOS*%
%AMOC8*
5,1,8,0,0,1.08239X$1,22.5*%
G01*
G04 Define Apertures*
%ADD10C,0.152400*%
G36*
X1379030Y292460D02*
X1378494Y292465D01*
X1377974Y292481D01*
X1377470Y292510D01*
X1376983Y292550D01*
X1376511Y292602D01*
X1376056Y292665D01*
X1375618Y292740D01*
X1375195Y292827D01*
X1374789Y292926D01*
X1374400Y293036D01*
X1374026Y293158D01*
X1373669Y293292D01*
X1373328Y293438D01*
X1373003Y293595D01*
X1372695Y293764D01*
X1372403Y293945D01*
X1372127Y294137D01*
X1371870Y294341D01*
X1371630Y294557D01*
X1371408Y294784D01*
X1371204Y295023D01*
X1371017Y295274D01*
X1370848Y295536D01*
X1370697Y295810D01*
X1370564Y296095D01*
X1370448Y296392D01*
X1370350Y296701D01*
X1370269Y297021D01*
X1370207Y297353D01*
X1370162Y297697D01*
X1370135Y298052D01*
X1370125Y298419D01*
X1370133Y298786D01*
X1370160Y299141D01*
X1370204Y299486D01*
X1370265Y299819D01*
X1370345Y300140D01*
X1370442Y300451D01*
X1370558Y300750D01*
X1370691Y301037D01*
X1370842Y301314D01*
X1371011Y301579D01*
X1371198Y301833D01*
X1371402Y302075D01*
X1371625Y302306D01*
X1371865Y302526D01*
X1372123Y302734D01*
X1372399Y302931D01*
X1372692Y303117D01*
X1373001Y303290D01*
X1373326Y303452D01*
X1373667Y303602D01*
X1374024Y303740D01*
X1374397Y303866D01*
X1374786Y303980D01*
X1375191Y304082D01*
X1375612Y304172D01*
X1376049Y304250D01*
X1376503Y304317D01*
X1376972Y304371D01*
X1377457Y304414D01*
X1377958Y304444D01*
X1378476Y304463D01*
X1379009Y304470D01*
X1380076Y304449D01*
X1381076Y304383D01*
X1381551Y304333D01*
X1382009Y304271D01*
X1382450Y304198D01*
X1382874Y304114D01*
X1383281Y304018D01*
X1383672Y303910D01*
X1384045Y303792D01*
X1384402Y303662D01*
X1384742Y303520D01*
X1385065Y303368D01*
X1385371Y303204D01*
X1385661Y303028D01*
X1385933Y302841D01*
X1386188Y302641D01*
X1386425Y302428D01*
X1386644Y302203D01*
X1386847Y301965D01*
X1387031Y301715D01*
X1387198Y301452D01*
X1387348Y301177D01*
X1387480Y300889D01*
X1387594Y300589D01*
X1387691Y300276D01*
X1387771Y299951D01*
X1387833Y299613D01*
X1387877Y299262D01*
X1387904Y298899D01*
X1387914Y298523D01*
X1387906Y298137D01*
X1387880Y297765D01*
X1387838Y297405D01*
X1387777Y297058D01*
X1387700Y296725D01*
X1387605Y296405D01*
X1387493Y296098D01*
X1387363Y295804D01*
X1387216Y295523D01*
X1387052Y295255D01*
X1386870Y295001D01*
X1386671Y294759D01*
X1386455Y294531D01*
X1386221Y294316D01*
X1385970Y294114D01*
X1385701Y293925D01*
X1385415Y293749D01*
X1385112Y293583D01*
X1384791Y293430D01*
X1384452Y293287D01*
X1384097Y293156D01*
X1383723Y293036D01*
X1383333Y292927D01*
X1382924Y292830D01*
X1382499Y292744D01*
X1382056Y292669D01*
X1381595Y292606D01*
X1381117Y292554D01*
X1380621Y292514D01*
X1380108Y292484D01*
X1379030Y292460D01*
G37*
%LPC*%
G36*
X1379026Y294693D02*
X1379940Y294708D01*
X1380788Y294751D01*
X1381569Y294822D01*
X1382283Y294921D01*
X1382930Y295047D01*
X1383511Y295201D01*
X1384024Y295382D01*
X1384471Y295591D01*
X1384859Y295832D01*
X1385195Y296109D01*
X1385479Y296422D01*
X1385712Y296770D01*
X1385892Y297154D01*
X1385963Y297359D01*
X1386021Y297574D01*
X1386066Y297797D01*
X1386098Y298029D01*
X1386116Y298270D01*
X1386123Y298520D01*
X1386116Y298764D01*
X1386095Y299000D01*
X1386062Y299226D01*
X1386016Y299444D01*
X1385956Y299653D01*
X1385884Y299853D01*
X1385699Y300226D01*
X1385462Y300565D01*
X1385173Y300868D01*
X1384831Y301137D01*
X1384437Y301370D01*
X1383984Y301572D01*
X1383467Y301746D01*
X1382886Y301894D01*
X1382240Y302015D01*
X1381530Y302108D01*
X1380755Y302174D01*
X1379916Y302213D01*
X1379013Y302225D01*
X1378140Y302209D01*
X1377326Y302165D01*
X1376570Y302093D01*
X1375873Y301993D01*
X1375233Y301864D01*
X1374652Y301707D01*
X1374130Y301522D01*
X1373666Y301308D01*
X1373258Y301064D01*
X1372904Y300788D01*
X1372605Y300479D01*
X1372361Y300137D01*
X1372259Y299954D01*
X1372171Y299763D01*
X1372097Y299564D01*
X1372036Y299357D01*
X1371989Y299141D01*
X1371955Y298918D01*
X1371935Y298686D01*
X1371928Y298446D01*
X1371936Y298205D01*
X1371956Y297972D01*
X1371990Y297748D01*
X1372037Y297532D01*
X1372097Y297324D01*
X1372171Y297124D01*
X1372358Y296750D01*
X1372598Y296409D01*
X1372892Y296101D01*
X1373239Y295826D01*
X1373639Y295585D01*
X1374096Y295374D01*
X1374616Y295192D01*
X1375196Y295038D01*
X1375839Y294912D01*
X1376543Y294815D01*
X1377309Y294746D01*
X1378137Y294705D01*
X1379026Y294693D01*
G37*
%LPD*%
G36*
X1379079Y264522D02*
X1378542Y264527D01*
X1378022Y264544D01*
X1377519Y264572D01*
X1377031Y264612D01*
X1376560Y264664D01*
X1376105Y264728D01*
X1375667Y264803D01*
X1375244Y264890D01*
X1374838Y264988D01*
X1374448Y265099D01*
X1374075Y265221D01*
X1373718Y265355D01*
X1373377Y265500D01*
X1373052Y265658D01*
X1372743Y265827D01*
X1372451Y266007D01*
X1372176Y266200D01*
X1371919Y266404D01*
X1371679Y266620D01*
X1371457Y266847D01*
X1371253Y267086D01*
X1371066Y267336D01*
X1370897Y267598D01*
X1370746Y267872D01*
X1370612Y268158D01*
X1370497Y268455D01*
X1370399Y268763D01*
X1370318Y269084D01*
X1370256Y269416D01*
X1370211Y269759D01*
X1370183Y270114D01*
X1370174Y270481D01*
X1370182Y270848D01*
X1370208Y271204D01*
X1370252Y271548D01*
X1370314Y271881D01*
X1370394Y272203D01*
X1370491Y272513D01*
X1370607Y272812D01*
X1370740Y273100D01*
X1370891Y273376D01*
X1371060Y273641D01*
X1371246Y273895D01*
X1371451Y274138D01*
X1371673Y274369D01*
X1371914Y274588D01*
X1372172Y274797D01*
X1372448Y274994D01*
X1372741Y275179D01*
X1373050Y275353D01*
X1373375Y275515D01*
X1373716Y275664D01*
X1374073Y275802D01*
X1374446Y275928D01*
X1374835Y276042D01*
X1375240Y276144D01*
X1375661Y276234D01*
X1376098Y276313D01*
X1376551Y276379D01*
X1377021Y276434D01*
X1377506Y276476D01*
X1378007Y276507D01*
X1378524Y276526D01*
X1379058Y276533D01*
X1380125Y276512D01*
X1381125Y276445D01*
X1381600Y276395D01*
X1382058Y276334D01*
X1382499Y276260D01*
X1382923Y276176D01*
X1383330Y276080D01*
X1383721Y275973D01*
X1384094Y275854D01*
X1384451Y275724D01*
X1384791Y275583D01*
X1385114Y275430D01*
X1385420Y275266D01*
X1385709Y275091D01*
X1385982Y274903D01*
X1386236Y274703D01*
X1386474Y274490D01*
X1386693Y274265D01*
X1386895Y274028D01*
X1387080Y273777D01*
X1387247Y273515D01*
X1387397Y273240D01*
X1387529Y272952D01*
X1387643Y272651D01*
X1387740Y272338D01*
X1387820Y272013D01*
X1387882Y271675D01*
X1387926Y271325D01*
X1387953Y270962D01*
X1387962Y270586D01*
X1387954Y270200D01*
X1387929Y269827D01*
X1387886Y269467D01*
X1387826Y269121D01*
X1387749Y268787D01*
X1387654Y268467D01*
X1387542Y268160D01*
X1387412Y267866D01*
X1387265Y267585D01*
X1387101Y267318D01*
X1386919Y267063D01*
X1386720Y266822D01*
X1386504Y266594D01*
X1386270Y266378D01*
X1386018Y266176D01*
X1385750Y265988D01*
X1385464Y265811D01*
X1385161Y265646D01*
X1384840Y265492D01*
X1384501Y265350D01*
X1384145Y265218D01*
X1383772Y265098D01*
X1383381Y264990D01*
X1382973Y264893D01*
X1382547Y264807D01*
X1382104Y264732D01*
X1381644Y264669D01*
X1381166Y264617D01*
X1380670Y264576D01*
X1380157Y264547D01*
X1379079Y264522D01*
G37*
%LPC*%
G36*
X1379075Y266755D02*
X1379989Y266771D01*
X1380837Y266814D01*
X1381617Y266885D01*
X1382332Y266983D01*
X1382979Y267109D01*
X1383559Y267263D01*
X1384073Y267445D01*
X1384520Y267654D01*
X1384908Y267895D01*
X1385244Y268172D01*
X1385528Y268484D01*
X1385760Y268832D01*
X1385941Y269216D01*
X1386012Y269422D01*
X1386069Y269636D01*
X1386114Y269859D01*
X1386146Y270092D01*
X1386165Y270333D01*
X1386171Y270583D01*
X1386164Y270827D01*
X1386144Y271062D01*
X1386111Y271289D01*
X1386065Y271506D01*
X1386005Y271715D01*
X1385933Y271915D01*
X1385748Y272289D01*
X1385511Y272627D01*
X1385222Y272931D01*
X1384880Y273199D01*
X1384486Y273432D01*
X1384033Y273634D01*
X1383516Y273809D01*
X1382934Y273957D01*
X1382288Y274077D01*
X1381578Y274170D01*
X1380804Y274237D01*
X1379965Y274276D01*
X1379062Y274288D01*
X1378189Y274272D01*
X1377375Y274228D01*
X1376619Y274156D01*
X1375921Y274055D01*
X1375282Y273926D01*
X1374701Y273769D01*
X1374179Y273584D01*
X1373714Y273371D01*
X1373306Y273127D01*
X1372953Y272850D01*
X1372654Y272541D01*
X1372410Y272200D01*
X1372308Y272017D01*
X1372220Y271826D01*
X1372145Y271627D01*
X1372085Y271419D01*
X1372037Y271204D01*
X1372004Y270980D01*
X1371984Y270749D01*
X1371977Y270509D01*
X1371984Y270268D01*
X1372005Y270035D01*
X1372038Y269810D01*
X1372085Y269594D01*
X1372146Y269386D01*
X1372219Y269186D01*
X1372407Y268812D01*
X1372647Y268471D01*
X1372941Y268163D01*
X1373287Y267889D01*
X1373687Y267647D01*
X1374145Y267437D01*
X1374664Y267255D01*
X1375245Y267101D01*
X1375888Y266975D01*
X1376592Y266878D01*
X1377358Y266808D01*
X1378185Y266768D01*
X1379075Y266755D01*
G37*
%LPD*%
G36*
X1370525Y209712D02*
X1370521Y212055D01*
X1377256Y212067D01*
X1377248Y217146D01*
X1377269Y217815D01*
X1377336Y218448D01*
X1377448Y219046D01*
X1377605Y219608D01*
X1377808Y220134D01*
X1378056Y220624D01*
X1378349Y221079D01*
X1378688Y221497D01*
X1379065Y221873D01*
X1379473Y222199D01*
X1379913Y222475D01*
X1380385Y222701D01*
X1380888Y222877D01*
X1381422Y223003D01*
X1381701Y223047D01*
X1381988Y223079D01*
X1382283Y223098D01*
X1382586Y223105D01*
X1382891Y223099D01*
X1383188Y223081D01*
X1383476Y223051D01*
X1383755Y223008D01*
X1384026Y222952D01*
X1384288Y222884D01*
X1384786Y222710D01*
X1385249Y222487D01*
X1385677Y222213D01*
X1386070Y221890D01*
X1386429Y221517D01*
X1386749Y221098D01*
X1387026Y220639D01*
X1387261Y220138D01*
X1387453Y219596D01*
X1387603Y219013D01*
X1387711Y218389D01*
X1387776Y217723D01*
X1387798Y217017D01*
X1387811Y209742D01*
X1370525Y209712D01*
G37*
%LPC*%
G36*
X1379109Y212070D02*
X1385930Y212082D01*
X1385922Y216732D01*
X1385908Y217219D01*
X1385868Y217675D01*
X1385802Y218099D01*
X1385709Y218492D01*
X1385591Y218853D01*
X1385447Y219183D01*
X1385276Y219481D01*
X1385079Y219748D01*
X1384856Y219983D01*
X1384607Y220187D01*
X1384332Y220360D01*
X1384031Y220501D01*
X1383704Y220610D01*
X1383351Y220688D01*
X1382971Y220735D01*
X1382566Y220750D01*
X1382145Y220734D01*
X1381752Y220687D01*
X1381386Y220610D01*
X1381047Y220502D01*
X1380735Y220363D01*
X1380451Y220194D01*
X1380194Y219994D01*
X1379963Y219764D01*
X1379760Y219503D01*
X1379585Y219211D01*
X1379436Y218889D01*
X1379315Y218536D01*
X1379220Y218152D01*
X1379153Y217738D01*
X1379113Y217293D01*
X1379101Y216818D01*
X1379109Y212070D01*
G37*
%LPD*%
G36*
X1378698Y250816D02*
X1378187Y250821D01*
X1377692Y250838D01*
X1377212Y250868D01*
X1376748Y250909D01*
X1376299Y250963D01*
X1375865Y251029D01*
X1375447Y251106D01*
X1375044Y251196D01*
X1374657Y251298D01*
X1374285Y251412D01*
X1373928Y251538D01*
X1373587Y251677D01*
X1373262Y251827D01*
X1372951Y251990D01*
X1372656Y252164D01*
X1372377Y252351D01*
X1372114Y252549D01*
X1371867Y252758D01*
X1371638Y252978D01*
X1371425Y253208D01*
X1371230Y253449D01*
X1371051Y253701D01*
X1370890Y253964D01*
X1370745Y254237D01*
X1370617Y254521D01*
X1370507Y254817D01*
X1370413Y255122D01*
X1370336Y255439D01*
X1370276Y255766D01*
X1370233Y256104D01*
X1370207Y256453D01*
X1370198Y256813D01*
X1370203Y257135D01*
X1370221Y257448D01*
X1370252Y257753D01*
X1370295Y258049D01*
X1370350Y258336D01*
X1370417Y258614D01*
X1370589Y259144D01*
X1370811Y259639D01*
X1371082Y260099D01*
X1371403Y260523D01*
X1371773Y260913D01*
X1372186Y261262D01*
X1372635Y261564D01*
X1373121Y261820D01*
X1373642Y262029D01*
X1374200Y262193D01*
X1374793Y262310D01*
X1375423Y262380D01*
X1376089Y262405D01*
X1376705Y262384D01*
X1377288Y262319D01*
X1377840Y262210D01*
X1378359Y262058D01*
X1378846Y261861D01*
X1379301Y261620D01*
X1379724Y261336D01*
X1380115Y261007D01*
X1380467Y260641D01*
X1380771Y260244D01*
X1381029Y259816D01*
X1381241Y259358D01*
X1381405Y258868D01*
X1381523Y258347D01*
X1381594Y257795D01*
X1381619Y257213D01*
X1381610Y256865D01*
X1381583Y256527D01*
X1381538Y256199D01*
X1381475Y255881D01*
X1381394Y255574D01*
X1381294Y255275D01*
X1381176Y254987D01*
X1381040Y254709D01*
X1380887Y254444D01*
X1380716Y254193D01*
X1380529Y253958D01*
X1380326Y253739D01*
X1380105Y253534D01*
X1379868Y253345D01*
X1379615Y253172D01*
X1379344Y253013D01*
X1380154Y253031D01*
X1380914Y253081D01*
X1381625Y253163D01*
X1382286Y253277D01*
X1382899Y253424D01*
X1383462Y253603D01*
X1383975Y253815D01*
X1384440Y254059D01*
X1384852Y254332D01*
X1385209Y254632D01*
X1385511Y254958D01*
X1385758Y255311D01*
X1385950Y255690D01*
X1386025Y255890D01*
X1386087Y256096D01*
X1386134Y256309D01*
X1386168Y256529D01*
X1386189Y256755D01*
X1386195Y256988D01*
X1386186Y257256D01*
X1386161Y257513D01*
X1386119Y257757D01*
X1386061Y257989D01*
X1385987Y258209D01*
X1385896Y258417D01*
X1385788Y258613D01*
X1385664Y258796D01*
X1385524Y258968D01*
X1385367Y259127D01*
X1385194Y259275D01*
X1385004Y259410D01*
X1384798Y259533D01*
X1384575Y259644D01*
X1384336Y259743D01*
X1384080Y259830D01*
X1384457Y261941D01*
X1384883Y261803D01*
X1385282Y261643D01*
X1385654Y261459D01*
X1385998Y261254D01*
X1386315Y261025D01*
X1386604Y260774D01*
X1386866Y260500D01*
X1387100Y260204D01*
X1387307Y259884D01*
X1387487Y259543D01*
X1387638Y259178D01*
X1387763Y258791D01*
X1387860Y258381D01*
X1387929Y257948D01*
X1387972Y257493D01*
X1387986Y257015D01*
X1387977Y256650D01*
X1387950Y256294D01*
X1387903Y255950D01*
X1387838Y255616D01*
X1387754Y255292D01*
X1387652Y254980D01*
X1387530Y254677D01*
X1387390Y254386D01*
X1387230Y254105D01*
X1387052Y253835D01*
X1386856Y253575D01*
X1386640Y253326D01*
X1386406Y253087D01*
X1386152Y252859D01*
X1385880Y252642D01*
X1385590Y252435D01*
X1385281Y252240D01*
X1384956Y252057D01*
X1384615Y251887D01*
X1384258Y251730D01*
X1383885Y251585D01*
X1383495Y251452D01*
X1383088Y251332D01*
X1382666Y251225D01*
X1382227Y251130D01*
X1381772Y251047D01*
X1381300Y250978D01*
X1380812Y250920D01*
X1380308Y250875D01*
X1379788Y250843D01*
X1379251Y250823D01*
X1378698Y250816D01*
G37*
%LPC*%
G36*
X1376534Y253229D02*
X1376919Y253245D01*
X1377283Y253290D01*
X1377625Y253365D01*
X1377946Y253469D01*
X1378246Y253603D01*
X1378524Y253767D01*
X1378781Y253961D01*
X1379017Y254184D01*
X1379228Y254432D01*
X1379411Y254697D01*
X1379565Y254982D01*
X1379691Y255285D01*
X1379789Y255606D01*
X1379859Y255947D01*
X1379901Y256305D01*
X1379914Y256682D01*
X1379898Y257082D01*
X1379849Y257459D01*
X1379769Y257813D01*
X1379657Y258145D01*
X1379513Y258454D01*
X1379338Y258740D01*
X1379131Y259004D01*
X1378892Y259245D01*
X1378623Y259460D01*
X1378328Y259646D01*
X1378006Y259804D01*
X1377657Y259932D01*
X1377282Y260032D01*
X1376880Y260104D01*
X1376451Y260146D01*
X1375995Y260160D01*
X1375538Y260145D01*
X1375107Y260101D01*
X1374700Y260030D01*
X1374319Y259930D01*
X1373963Y259801D01*
X1373632Y259645D01*
X1373326Y259460D01*
X1373046Y259247D01*
X1372795Y259009D01*
X1372577Y258749D01*
X1372393Y258468D01*
X1372243Y258166D01*
X1372126Y257842D01*
X1372043Y257497D01*
X1371993Y257130D01*
X1371977Y256742D01*
X1371997Y256364D01*
X1372058Y256004D01*
X1372158Y255662D01*
X1372298Y255336D01*
X1372478Y255029D01*
X1372698Y254739D01*
X1372958Y254466D01*
X1373257Y254211D01*
X1373588Y253980D01*
X1373941Y253780D01*
X1374317Y253611D01*
X1374715Y253473D01*
X1375136Y253366D01*
X1375580Y253289D01*
X1376046Y253244D01*
X1376534Y253229D01*
G37*
%LPD*%
G36*
X1370562Y188806D02*
X1370558Y190891D01*
X1382090Y190911D01*
X1384409Y190866D01*
X1385771Y190832D01*
X1384420Y191234D01*
X1382334Y191918D01*
X1370549Y196424D01*
X1370546Y198068D01*
X1382315Y202554D01*
X1382994Y202802D01*
X1383793Y203066D01*
X1384711Y203345D01*
X1385748Y203640D01*
X1384856Y203590D01*
X1383945Y203554D01*
X1383016Y203531D01*
X1382068Y203523D01*
X1370536Y203503D01*
X1370532Y205613D01*
X1387818Y205643D01*
X1387823Y202637D01*
X1375845Y198102D01*
X1375402Y197940D01*
X1374589Y197676D01*
X1373717Y197416D01*
X1373099Y197263D01*
X1373582Y197152D01*
X1374295Y196964D01*
X1375098Y196734D01*
X1375848Y196495D01*
X1387842Y191915D01*
X1387847Y188836D01*
X1370562Y188806D01*
G37*
G36*
X1376778Y226350D02*
X1376277Y226363D01*
X1375794Y226403D01*
X1375329Y226470D01*
X1374882Y226565D01*
X1374452Y226686D01*
X1374039Y226835D01*
X1373645Y227012D01*
X1373267Y227215D01*
X1372910Y227443D01*
X1372574Y227694D01*
X1372260Y227967D01*
X1371968Y228262D01*
X1371698Y228579D01*
X1371449Y228919D01*
X1371223Y229281D01*
X1371018Y229665D01*
X1370836Y230069D01*
X1370678Y230489D01*
X1370545Y230927D01*
X1370435Y231381D01*
X1370350Y231853D01*
X1370289Y232341D01*
X1370252Y232846D01*
X1370239Y233368D01*
X1370250Y233911D01*
X1370287Y234436D01*
X1370349Y234943D01*
X1370436Y235431D01*
X1370548Y235902D01*
X1370685Y236354D01*
X1370848Y236788D01*
X1371036Y237204D01*
X1371247Y237599D01*
X1371481Y237971D01*
X1371737Y238320D01*
X1372016Y238647D01*
X1372317Y238950D01*
X1372641Y239231D01*
X1372987Y239488D01*
X1373356Y239723D01*
X1373745Y239932D01*
X1374152Y240113D01*
X1374577Y240267D01*
X1375020Y240393D01*
X1375481Y240491D01*
X1375961Y240561D01*
X1376458Y240603D01*
X1376973Y240618D01*
X1387757Y240637D01*
X1387761Y238306D01*
X1377112Y238288D01*
X1376520Y238266D01*
X1375965Y238205D01*
X1375447Y238103D01*
X1374965Y237960D01*
X1374519Y237777D01*
X1374111Y237554D01*
X1373739Y237291D01*
X1373404Y236987D01*
X1373107Y236647D01*
X1372849Y236274D01*
X1372632Y235869D01*
X1372454Y235432D01*
X1372316Y234962D01*
X1372218Y234460D01*
X1372159Y233926D01*
X1372140Y233359D01*
X1372160Y232809D01*
X1372219Y232291D01*
X1372315Y231808D01*
X1372450Y231357D01*
X1372624Y230940D01*
X1372835Y230557D01*
X1373085Y230206D01*
X1373373Y229890D01*
X1373698Y229608D01*
X1374059Y229365D01*
X1374455Y229159D01*
X1374887Y228991D01*
X1375354Y228860D01*
X1375857Y228767D01*
X1376396Y228711D01*
X1376970Y228694D01*
X1387778Y228713D01*
X1387782Y226369D01*
X1376778Y226350D01*
G37*
G36*
X1374270Y278507D02*
X1373784Y278622D01*
X1373328Y278770D01*
X1372902Y278953D01*
X1372505Y279170D01*
X1372137Y279421D01*
X1371799Y279706D01*
X1371491Y280025D01*
X1371212Y280379D01*
X1370964Y280764D01*
X1370749Y281179D01*
X1370567Y281622D01*
X1370417Y282095D01*
X1370301Y282597D01*
X1370218Y283128D01*
X1370167Y283689D01*
X1370150Y284278D01*
X1370155Y284634D01*
X1370173Y284979D01*
X1370203Y285315D01*
X1370246Y285641D01*
X1370300Y285958D01*
X1370367Y286264D01*
X1370538Y286848D01*
X1370758Y287392D01*
X1371027Y287897D01*
X1371345Y288363D01*
X1371712Y288790D01*
X1372122Y289171D01*
X1372569Y289502D01*
X1373052Y289782D01*
X1373572Y290012D01*
X1373845Y290108D01*
X1374128Y290191D01*
X1374420Y290261D01*
X1374721Y290319D01*
X1375031Y290364D01*
X1375350Y290396D01*
X1375678Y290416D01*
X1376015Y290423D01*
X1376602Y290400D01*
X1377161Y290330D01*
X1377692Y290212D01*
X1378194Y290048D01*
X1378668Y289835D01*
X1379113Y289576D01*
X1379530Y289269D01*
X1379919Y288914D01*
X1380271Y288520D01*
X1380576Y288093D01*
X1380834Y287634D01*
X1381045Y287142D01*
X1381210Y286618D01*
X1381328Y286061D01*
X1381399Y285472D01*
X1381423Y284850D01*
X1381407Y284327D01*
X1381356Y283826D01*
X1381271Y283347D01*
X1381151Y282890D01*
X1380996Y282454D01*
X1380807Y282040D01*
X1380583Y281648D01*
X1380325Y281278D01*
X1385809Y281619D01*
X1385795Y289434D01*
X1387672Y289437D01*
X1387689Y279610D01*
X1378391Y279017D01*
X1378387Y281177D01*
X1378699Y281564D01*
X1378962Y281950D01*
X1379176Y282337D01*
X1379341Y282724D01*
X1379464Y283118D01*
X1379552Y283528D01*
X1379604Y283953D01*
X1379621Y284393D01*
X1379604Y284811D01*
X1379556Y285208D01*
X1379477Y285582D01*
X1379366Y285934D01*
X1379224Y286264D01*
X1379051Y286571D01*
X1378846Y286857D01*
X1378610Y287121D01*
X1378348Y287358D01*
X1378067Y287563D01*
X1377766Y287736D01*
X1377446Y287878D01*
X1377106Y287988D01*
X1376747Y288066D01*
X1376369Y288113D01*
X1375970Y288128D01*
X1375514Y288112D01*
X1375082Y288064D01*
X1374676Y287985D01*
X1374295Y287874D01*
X1373939Y287732D01*
X1373608Y287558D01*
X1373302Y287354D01*
X1373022Y287117D01*
X1372771Y286853D01*
X1372553Y286565D01*
X1372369Y286253D01*
X1372219Y285917D01*
X1372102Y285556D01*
X1372019Y285172D01*
X1371969Y284763D01*
X1371953Y284331D01*
X1371964Y283977D01*
X1371994Y283641D01*
X1372045Y283322D01*
X1372116Y283020D01*
X1372206Y282736D01*
X1372317Y282469D01*
X1372448Y282218D01*
X1372598Y281985D01*
X1372769Y281770D01*
X1372960Y281571D01*
X1373170Y281390D01*
X1373401Y281225D01*
X1373651Y281078D01*
X1373922Y280949D01*
X1374213Y280836D01*
X1374523Y280740D01*
X1374270Y278507D01*
G37*
G36*
X1474512Y313926D02*
X1474079Y313949D01*
X1473672Y314020D01*
X1473290Y314138D01*
X1472935Y314304D01*
X1472613Y314515D01*
X1472329Y314768D01*
X1472084Y315063D01*
X1471878Y315400D01*
X1471714Y315772D01*
X1471597Y316175D01*
X1471527Y316607D01*
X1471503Y317070D01*
X1471516Y317422D01*
X1471555Y317753D01*
X1471621Y318064D01*
X1471714Y318354D01*
X1471833Y318623D01*
X1471979Y318872D01*
X1472151Y319100D01*
X1472351Y319307D01*
X1472574Y319491D01*
X1472821Y319652D01*
X1473089Y319787D01*
X1473380Y319898D01*
X1473694Y319985D01*
X1474030Y320047D01*
X1474388Y320084D01*
X1474769Y320097D01*
X1476810Y320101D01*
X1476820Y313930D01*
X1474512Y313926D01*
G37*
%LPC*%
G36*
X1474608Y314596D02*
X1475983Y314599D01*
X1475974Y319429D01*
X1474788Y319427D01*
X1474499Y319417D01*
X1474227Y319388D01*
X1473973Y319341D01*
X1473737Y319275D01*
X1473519Y319190D01*
X1473318Y319086D01*
X1473135Y318963D01*
X1472969Y318822D01*
X1472822Y318662D01*
X1472695Y318486D01*
X1472587Y318293D01*
X1472499Y318083D01*
X1472431Y317855D01*
X1472382Y317611D01*
X1472353Y317350D01*
X1472344Y317071D01*
X1472362Y316703D01*
X1472414Y316360D01*
X1472501Y316042D01*
X1472622Y315749D01*
X1472775Y315486D01*
X1472958Y315255D01*
X1473171Y315057D01*
X1473414Y314892D01*
X1473682Y314762D01*
X1473970Y314670D01*
X1474279Y314614D01*
X1474608Y314596D01*
G37*
%LPD*%
G36*
X1478279Y313933D02*
X1478268Y320103D01*
X1479022Y320105D01*
X1479029Y316058D01*
X1479017Y315554D01*
X1478978Y314814D01*
X1482306Y320110D01*
X1483278Y320112D01*
X1483289Y313942D01*
X1482545Y313940D01*
X1482537Y318039D01*
X1482558Y318771D01*
X1482579Y319195D01*
X1479286Y313935D01*
X1478279Y313933D01*
G37*
G36*
X1487433Y313861D02*
X1487025Y313878D01*
X1486631Y313928D01*
X1486253Y314013D01*
X1485889Y314132D01*
X1485547Y314283D01*
X1485232Y314461D01*
X1484945Y314668D01*
X1484686Y314903D01*
X1484682Y317031D01*
X1487296Y317036D01*
X1487298Y316335D01*
X1485454Y316332D01*
X1485456Y315220D01*
X1485631Y315071D01*
X1485830Y314938D01*
X1486055Y314822D01*
X1486304Y314722D01*
X1486571Y314642D01*
X1486848Y314585D01*
X1487135Y314551D01*
X1487432Y314540D01*
X1487690Y314551D01*
X1487933Y314583D01*
X1488162Y314636D01*
X1488377Y314711D01*
X1488577Y314806D01*
X1488763Y314923D01*
X1488934Y315061D01*
X1489091Y315219D01*
X1489231Y315397D01*
X1489353Y315589D01*
X1489455Y315797D01*
X1489539Y316020D01*
X1489605Y316259D01*
X1489651Y316513D01*
X1489679Y316782D01*
X1489688Y317066D01*
X1489678Y317352D01*
X1489651Y317620D01*
X1489607Y317872D01*
X1489544Y318108D01*
X1489465Y318327D01*
X1489367Y318529D01*
X1489252Y318715D01*
X1489119Y318885D01*
X1488970Y319036D01*
X1488805Y319167D01*
X1488624Y319278D01*
X1488428Y319368D01*
X1488216Y319439D01*
X1487988Y319489D01*
X1487744Y319518D01*
X1487485Y319528D01*
X1487155Y319512D01*
X1486854Y319467D01*
X1486581Y319391D01*
X1486336Y319285D01*
X1486117Y319147D01*
X1485924Y318972D01*
X1485756Y318763D01*
X1485612Y318518D01*
X1484815Y318753D01*
X1485005Y319108D01*
X1485233Y319411D01*
X1485497Y319663D01*
X1485798Y319862D01*
X1486142Y320014D01*
X1486533Y320123D01*
X1486973Y320189D01*
X1487462Y320211D01*
X1487816Y320199D01*
X1488150Y320161D01*
X1488464Y320097D01*
X1488757Y320008D01*
X1489030Y319892D01*
X1489283Y319751D01*
X1489515Y319584D01*
X1489727Y319392D01*
X1489916Y319176D01*
X1490081Y318938D01*
X1490220Y318680D01*
X1490333Y318400D01*
X1490422Y318099D01*
X1490485Y317776D01*
X1490524Y317433D01*
X1490537Y317068D01*
X1490515Y316593D01*
X1490446Y316151D01*
X1490331Y315740D01*
X1490170Y315362D01*
X1489965Y315020D01*
X1489718Y314721D01*
X1489431Y314464D01*
X1489101Y314250D01*
X1488734Y314080D01*
X1488334Y313959D01*
X1487901Y313886D01*
X1487671Y313868D01*
X1487433Y313861D01*
G37*
G36*
X1475048Y339240D02*
X1474824Y339246D01*
X1474606Y339265D01*
X1474396Y339297D01*
X1474192Y339342D01*
X1473806Y339471D01*
X1473447Y339653D01*
X1473121Y339884D01*
X1472833Y340163D01*
X1472584Y340490D01*
X1472374Y340864D01*
X1473056Y341207D01*
X1473230Y340906D01*
X1473424Y340646D01*
X1473638Y340426D01*
X1473871Y340246D01*
X1474125Y340106D01*
X1474399Y340006D01*
X1474693Y339947D01*
X1475007Y339927D01*
X1475254Y339938D01*
X1475487Y339971D01*
X1475707Y340025D01*
X1475914Y340101D01*
X1476108Y340198D01*
X1476289Y340317D01*
X1476456Y340458D01*
X1476611Y340620D01*
X1476750Y340799D01*
X1476870Y340993D01*
X1476972Y341200D01*
X1477055Y341421D01*
X1477119Y341656D01*
X1477165Y341905D01*
X1477193Y342168D01*
X1477201Y342445D01*
X1477192Y342724D01*
X1477165Y342988D01*
X1477120Y343236D01*
X1477057Y343470D01*
X1476977Y343688D01*
X1476879Y343890D01*
X1476763Y344078D01*
X1476629Y344250D01*
X1476479Y344404D01*
X1476315Y344538D01*
X1476137Y344651D01*
X1475945Y344743D01*
X1475738Y344815D01*
X1475518Y344866D01*
X1475283Y344897D01*
X1475034Y344906D01*
X1474719Y344888D01*
X1474426Y344834D01*
X1474155Y344745D01*
X1473906Y344620D01*
X1473685Y344461D01*
X1473497Y344271D01*
X1473341Y344049D01*
X1473218Y343795D01*
X1472425Y344057D01*
X1472602Y344413D01*
X1472822Y344722D01*
X1473087Y344985D01*
X1473395Y345201D01*
X1473746Y345371D01*
X1474137Y345492D01*
X1474348Y345534D01*
X1474569Y345565D01*
X1474800Y345583D01*
X1475041Y345590D01*
X1475384Y345577D01*
X1475708Y345538D01*
X1476013Y345474D01*
X1476298Y345383D01*
X1476565Y345265D01*
X1476812Y345122D01*
X1477041Y344953D01*
X1477250Y344757D01*
X1477437Y344538D01*
X1477599Y344299D01*
X1477737Y344041D01*
X1477849Y343762D01*
X1477937Y343463D01*
X1478000Y343144D01*
X1478038Y342805D01*
X1478051Y342446D01*
X1478029Y341970D01*
X1477963Y341527D01*
X1477852Y341117D01*
X1477697Y340740D01*
X1477499Y340400D01*
X1477260Y340102D01*
X1476981Y339845D01*
X1476661Y339630D01*
X1476305Y339460D01*
X1475918Y339338D01*
X1475499Y339265D01*
X1475277Y339246D01*
X1475048Y339240D01*
G37*
G36*
X1481517Y339251D02*
X1481292Y339257D01*
X1481075Y339276D01*
X1480864Y339308D01*
X1480661Y339353D01*
X1480274Y339483D01*
X1479915Y339664D01*
X1479589Y339895D01*
X1479302Y340174D01*
X1479053Y340501D01*
X1478842Y340875D01*
X1479525Y341218D01*
X1479699Y340918D01*
X1479892Y340657D01*
X1480106Y340437D01*
X1480340Y340257D01*
X1480594Y340117D01*
X1480868Y340018D01*
X1481162Y339958D01*
X1481476Y339938D01*
X1481722Y339950D01*
X1481956Y339982D01*
X1482176Y340037D01*
X1482383Y340112D01*
X1482577Y340210D01*
X1482758Y340329D01*
X1482925Y340469D01*
X1483080Y340631D01*
X1483219Y340811D01*
X1483339Y341004D01*
X1483440Y341211D01*
X1483523Y341433D01*
X1483588Y341668D01*
X1483634Y341917D01*
X1483661Y342179D01*
X1483670Y342456D01*
X1483661Y342735D01*
X1483634Y342999D01*
X1483589Y343248D01*
X1483526Y343481D01*
X1483445Y343699D01*
X1483347Y343902D01*
X1483231Y344089D01*
X1483098Y344261D01*
X1482948Y344416D01*
X1482784Y344549D01*
X1482606Y344662D01*
X1482414Y344755D01*
X1482207Y344826D01*
X1481986Y344877D01*
X1481751Y344908D01*
X1481502Y344918D01*
X1481187Y344899D01*
X1480894Y344845D01*
X1480624Y344756D01*
X1480375Y344631D01*
X1480154Y344472D01*
X1479966Y344282D01*
X1479810Y344060D01*
X1479687Y343807D01*
X1478894Y344068D01*
X1479071Y344424D01*
X1479291Y344733D01*
X1479556Y344996D01*
X1479864Y345213D01*
X1480215Y345382D01*
X1480606Y345503D01*
X1480817Y345545D01*
X1481038Y345576D01*
X1481269Y345594D01*
X1481510Y345601D01*
X1481853Y345588D01*
X1482177Y345550D01*
X1482482Y345485D01*
X1482767Y345394D01*
X1483034Y345277D01*
X1483281Y345133D01*
X1483509Y344964D01*
X1483719Y344768D01*
X1483906Y344550D01*
X1484068Y344311D01*
X1484205Y344052D01*
X1484318Y343773D01*
X1484406Y343474D01*
X1484469Y343155D01*
X1484507Y342816D01*
X1484520Y342457D01*
X1484498Y341981D01*
X1484432Y341538D01*
X1484321Y341128D01*
X1484166Y340751D01*
X1483968Y340411D01*
X1483729Y340113D01*
X1483450Y339856D01*
X1483130Y339641D01*
X1482774Y339471D01*
X1482386Y339349D01*
X1481967Y339276D01*
X1481746Y339257D01*
X1481517Y339251D01*
G37*
G36*
X1487525Y339349D02*
X1484996Y345515D01*
X1485876Y345517D01*
X1487583Y341175D01*
X1487953Y340085D01*
X1488318Y341177D01*
X1490019Y345524D01*
X1490899Y345525D01*
X1488392Y339351D01*
X1487525Y339349D01*
G37*
G36*
X1488016Y288462D02*
X1487722Y288469D01*
X1487444Y288491D01*
X1487183Y288527D01*
X1486939Y288577D01*
X1486713Y288643D01*
X1486503Y288723D01*
X1486310Y288818D01*
X1486135Y288927D01*
X1485978Y289050D01*
X1485842Y289185D01*
X1485727Y289332D01*
X1485633Y289492D01*
X1485559Y289663D01*
X1485507Y289846D01*
X1485475Y290041D01*
X1485465Y290249D01*
X1485487Y290564D01*
X1485558Y290836D01*
X1485669Y291069D01*
X1485817Y291270D01*
X1485998Y291440D01*
X1486209Y291581D01*
X1486442Y291701D01*
X1486692Y291803D01*
X1486957Y291892D01*
X1487233Y291966D01*
X1487800Y292101D01*
X1488508Y292276D01*
X1488756Y292352D01*
X1488933Y292420D01*
X1489184Y292564D01*
X1489285Y292647D01*
X1489369Y292737D01*
X1489435Y292836D01*
X1489482Y292947D01*
X1489510Y293071D01*
X1489519Y293208D01*
X1489513Y293325D01*
X1489494Y293436D01*
X1489421Y293633D01*
X1489299Y293801D01*
X1489128Y293938D01*
X1488911Y294045D01*
X1488650Y294121D01*
X1488346Y294167D01*
X1487998Y294181D01*
X1487679Y294167D01*
X1487397Y294125D01*
X1487151Y294056D01*
X1486943Y293958D01*
X1486768Y293831D01*
X1486623Y293669D01*
X1486510Y293475D01*
X1486427Y293246D01*
X1485604Y293389D01*
X1485735Y293749D01*
X1485817Y293907D01*
X1485909Y294051D01*
X1486011Y294182D01*
X1486124Y294298D01*
X1486247Y294400D01*
X1486381Y294487D01*
X1486528Y294563D01*
X1486690Y294629D01*
X1487061Y294730D01*
X1487493Y294791D01*
X1487988Y294812D01*
X1488262Y294806D01*
X1488520Y294786D01*
X1488762Y294753D01*
X1488987Y294707D01*
X1489196Y294647D01*
X1489389Y294573D01*
X1489565Y294486D01*
X1489725Y294386D01*
X1489867Y294273D01*
X1489991Y294149D01*
X1490095Y294014D01*
X1490181Y293867D01*
X1490247Y293708D01*
X1490295Y293539D01*
X1490324Y293358D01*
X1490334Y293165D01*
X1490327Y292997D01*
X1490305Y292839D01*
X1490269Y292690D01*
X1490219Y292552D01*
X1490077Y292301D01*
X1489884Y292085D01*
X1489626Y291895D01*
X1489287Y291723D01*
X1488821Y291560D01*
X1488178Y291397D01*
X1487412Y291216D01*
X1487090Y291122D01*
X1486816Y291009D01*
X1486595Y290869D01*
X1486429Y290697D01*
X1486369Y290596D01*
X1486326Y290480D01*
X1486301Y290350D01*
X1486292Y290207D01*
X1486299Y290076D01*
X1486320Y289954D01*
X1486355Y289839D01*
X1486403Y289733D01*
X1486541Y289546D01*
X1486734Y289391D01*
X1486977Y289269D01*
X1487267Y289183D01*
X1487603Y289131D01*
X1487985Y289115D01*
X1488356Y289132D01*
X1488686Y289181D01*
X1488975Y289263D01*
X1489223Y289377D01*
X1489431Y289527D01*
X1489599Y289712D01*
X1489728Y289935D01*
X1489818Y290195D01*
X1490628Y290035D01*
X1490576Y289845D01*
X1490509Y289667D01*
X1490428Y289501D01*
X1490331Y289348D01*
X1490220Y289207D01*
X1490094Y289078D01*
X1489953Y288962D01*
X1489797Y288857D01*
X1489626Y288765D01*
X1489441Y288685D01*
X1489240Y288617D01*
X1489025Y288562D01*
X1488795Y288519D01*
X1488551Y288488D01*
X1488291Y288469D01*
X1488016Y288462D01*
G37*
G36*
X1481605Y288451D02*
X1481381Y288457D01*
X1481164Y288476D01*
X1480953Y288508D01*
X1480750Y288554D01*
X1480363Y288683D01*
X1480004Y288864D01*
X1479678Y289095D01*
X1479391Y289374D01*
X1479142Y289701D01*
X1478931Y290075D01*
X1479614Y290418D01*
X1479787Y290118D01*
X1479981Y289857D01*
X1480195Y289637D01*
X1480429Y289457D01*
X1480683Y289317D01*
X1480957Y289218D01*
X1481251Y289158D01*
X1481565Y289138D01*
X1481811Y289150D01*
X1482044Y289182D01*
X1482264Y289237D01*
X1482471Y289312D01*
X1482665Y289410D01*
X1482846Y289529D01*
X1483014Y289669D01*
X1483168Y289831D01*
X1483307Y290011D01*
X1483427Y290204D01*
X1483529Y290411D01*
X1483612Y290633D01*
X1483677Y290868D01*
X1483723Y291117D01*
X1483750Y291379D01*
X1483759Y291656D01*
X1483749Y291935D01*
X1483722Y292199D01*
X1483677Y292448D01*
X1483615Y292681D01*
X1483534Y292899D01*
X1483436Y293102D01*
X1483320Y293289D01*
X1483186Y293461D01*
X1483037Y293616D01*
X1482873Y293749D01*
X1482695Y293862D01*
X1482502Y293955D01*
X1482296Y294026D01*
X1482075Y294077D01*
X1481840Y294108D01*
X1481591Y294118D01*
X1481276Y294099D01*
X1480983Y294046D01*
X1480712Y293956D01*
X1480464Y293831D01*
X1480243Y293673D01*
X1480054Y293482D01*
X1479899Y293260D01*
X1479776Y293007D01*
X1478982Y293268D01*
X1479159Y293624D01*
X1479380Y293933D01*
X1479644Y294196D01*
X1479953Y294413D01*
X1480303Y294582D01*
X1480694Y294703D01*
X1480905Y294746D01*
X1481126Y294776D01*
X1481357Y294794D01*
X1481599Y294801D01*
X1481942Y294788D01*
X1482265Y294750D01*
X1482570Y294685D01*
X1482856Y294594D01*
X1483122Y294477D01*
X1483370Y294334D01*
X1483598Y294164D01*
X1483807Y293968D01*
X1483994Y293750D01*
X1484157Y293511D01*
X1484294Y293252D01*
X1484407Y292973D01*
X1484494Y292674D01*
X1484557Y292355D01*
X1484595Y292016D01*
X1484608Y291658D01*
X1484587Y291181D01*
X1484521Y290738D01*
X1484410Y290328D01*
X1484254Y289951D01*
X1484056Y289611D01*
X1483818Y289313D01*
X1483538Y289057D01*
X1483218Y288841D01*
X1482862Y288671D01*
X1482475Y288549D01*
X1482056Y288476D01*
X1481835Y288457D01*
X1481605Y288451D01*
G37*
G36*
X1473910Y288525D02*
X1473909Y289208D01*
X1477027Y289214D01*
X1477017Y294701D01*
X1477854Y294702D01*
X1477865Y288532D01*
X1473910Y288525D01*
G37*
G36*
X1482070Y263139D02*
X1481636Y263162D01*
X1481229Y263233D01*
X1480848Y263352D01*
X1480493Y263518D01*
X1480170Y263728D01*
X1479886Y263981D01*
X1479642Y264276D01*
X1479435Y264613D01*
X1479272Y264985D01*
X1479155Y265388D01*
X1479084Y265820D01*
X1479060Y266283D01*
X1479073Y266635D01*
X1479112Y266966D01*
X1479178Y267277D01*
X1479271Y267567D01*
X1479390Y267836D01*
X1479536Y268085D01*
X1479709Y268313D01*
X1479908Y268520D01*
X1480132Y268705D01*
X1480378Y268865D01*
X1480647Y269000D01*
X1480938Y269111D01*
X1481251Y269198D01*
X1481587Y269260D01*
X1481946Y269297D01*
X1482326Y269310D01*
X1484367Y269314D01*
X1484378Y263143D01*
X1482070Y263139D01*
G37*
%LPC*%
G36*
X1482165Y263810D02*
X1483540Y263812D01*
X1483532Y268642D01*
X1482345Y268640D01*
X1482056Y268630D01*
X1481785Y268602D01*
X1481531Y268554D01*
X1481295Y268488D01*
X1481076Y268403D01*
X1480875Y268299D01*
X1480692Y268176D01*
X1480526Y268035D01*
X1480379Y267876D01*
X1480252Y267699D01*
X1480144Y267506D01*
X1480056Y267296D01*
X1479988Y267068D01*
X1479939Y266824D01*
X1479910Y266563D01*
X1479901Y266284D01*
X1479919Y265916D01*
X1479971Y265573D01*
X1480058Y265255D01*
X1480179Y264962D01*
X1480333Y264699D01*
X1480516Y264468D01*
X1480729Y264270D01*
X1480971Y264105D01*
X1481239Y263975D01*
X1481527Y263883D01*
X1481836Y263828D01*
X1482165Y263810D01*
G37*
%LPD*%
G36*
X1472680Y263123D02*
X1475148Y269298D01*
X1476098Y269299D01*
X1478627Y263133D01*
X1477760Y263132D01*
X1477048Y264935D01*
X1474236Y264930D01*
X1473534Y263124D01*
X1472680Y263123D01*
G37*
%LPC*%
G36*
X1474485Y265583D02*
X1476792Y265587D01*
X1476001Y267613D01*
X1475811Y268131D01*
X1475675Y268545D01*
X1475635Y268668D01*
X1475518Y268304D01*
X1475274Y267621D01*
X1474485Y265583D01*
G37*
%LPD*%
G36*
X1488061Y263062D02*
X1487766Y263069D01*
X1487488Y263091D01*
X1487227Y263127D01*
X1486984Y263178D01*
X1486757Y263243D01*
X1486547Y263323D01*
X1486355Y263418D01*
X1486179Y263528D01*
X1486022Y263650D01*
X1485886Y263785D01*
X1485771Y263932D01*
X1485677Y264092D01*
X1485604Y264263D01*
X1485551Y264446D01*
X1485520Y264641D01*
X1485509Y264849D01*
X1485532Y265164D01*
X1485602Y265436D01*
X1485714Y265669D01*
X1485862Y265870D01*
X1486043Y266040D01*
X1486253Y266182D01*
X1486487Y266301D01*
X1486737Y266404D01*
X1487001Y266492D01*
X1487277Y266566D01*
X1487844Y266701D01*
X1488552Y266876D01*
X1488800Y266952D01*
X1488978Y267021D01*
X1489229Y267164D01*
X1489329Y267247D01*
X1489413Y267337D01*
X1489479Y267436D01*
X1489526Y267548D01*
X1489554Y267671D01*
X1489563Y267808D01*
X1489557Y267925D01*
X1489539Y268036D01*
X1489465Y268233D01*
X1489343Y268401D01*
X1489172Y268538D01*
X1488955Y268645D01*
X1488695Y268721D01*
X1488390Y268767D01*
X1488042Y268782D01*
X1487723Y268767D01*
X1487441Y268725D01*
X1487196Y268656D01*
X1486987Y268559D01*
X1486812Y268431D01*
X1486668Y268270D01*
X1486554Y268075D01*
X1486471Y267846D01*
X1485648Y267989D01*
X1485780Y268349D01*
X1485861Y268507D01*
X1485953Y268651D01*
X1486056Y268782D01*
X1486169Y268898D01*
X1486292Y269000D01*
X1486425Y269087D01*
X1486572Y269163D01*
X1486734Y269229D01*
X1487105Y269330D01*
X1487538Y269391D01*
X1488032Y269412D01*
X1488306Y269406D01*
X1488564Y269386D01*
X1488806Y269353D01*
X1489031Y269307D01*
X1489240Y269247D01*
X1489433Y269173D01*
X1489609Y269086D01*
X1489769Y268986D01*
X1489912Y268873D01*
X1490035Y268749D01*
X1490139Y268614D01*
X1490225Y268467D01*
X1490292Y268308D01*
X1490339Y268139D01*
X1490368Y267958D01*
X1490378Y267765D01*
X1490371Y267597D01*
X1490349Y267439D01*
X1490313Y267291D01*
X1490263Y267152D01*
X1490122Y266902D01*
X1489929Y266685D01*
X1489670Y266495D01*
X1489332Y266323D01*
X1488865Y266160D01*
X1488222Y265997D01*
X1487456Y265816D01*
X1487134Y265722D01*
X1486861Y265609D01*
X1486639Y265469D01*
X1486474Y265297D01*
X1486413Y265196D01*
X1486371Y265080D01*
X1486345Y264951D01*
X1486337Y264807D01*
X1486344Y264676D01*
X1486365Y264554D01*
X1486399Y264439D01*
X1486447Y264333D01*
X1486585Y264146D01*
X1486778Y263991D01*
X1487022Y263869D01*
X1487311Y263783D01*
X1487647Y263731D01*
X1488029Y263715D01*
X1488400Y263732D01*
X1488731Y263781D01*
X1489020Y263863D01*
X1489268Y263977D01*
X1489476Y264127D01*
X1489644Y264313D01*
X1489773Y264535D01*
X1489862Y264795D01*
X1490672Y264635D01*
X1490620Y264445D01*
X1490554Y264267D01*
X1490472Y264101D01*
X1490376Y263948D01*
X1490264Y263807D01*
X1490138Y263678D01*
X1489997Y263562D01*
X1489841Y263457D01*
X1489671Y263365D01*
X1489485Y263285D01*
X1489285Y263217D01*
X1489070Y263162D01*
X1488840Y263119D01*
X1488595Y263088D01*
X1488335Y263069D01*
X1488061Y263062D01*
G37*
G36*
X1482114Y237739D02*
X1481681Y237762D01*
X1481273Y237833D01*
X1480892Y237952D01*
X1480537Y238118D01*
X1480214Y238329D01*
X1479931Y238581D01*
X1479686Y238876D01*
X1479480Y239213D01*
X1479316Y239585D01*
X1479199Y239988D01*
X1479129Y240420D01*
X1479105Y240883D01*
X1479117Y241235D01*
X1479157Y241566D01*
X1479223Y241877D01*
X1479315Y242167D01*
X1479435Y242436D01*
X1479581Y242685D01*
X1479753Y242913D01*
X1479952Y243120D01*
X1480176Y243305D01*
X1480422Y243465D01*
X1480691Y243600D01*
X1480982Y243711D01*
X1481296Y243798D01*
X1481632Y243860D01*
X1481990Y243897D01*
X1482371Y243910D01*
X1484411Y243914D01*
X1484422Y237743D01*
X1482114Y237739D01*
G37*
%LPC*%
G36*
X1482209Y238410D02*
X1483584Y238412D01*
X1483576Y243242D01*
X1482389Y243240D01*
X1482100Y243230D01*
X1481829Y243202D01*
X1481575Y243154D01*
X1481339Y243088D01*
X1481121Y243003D01*
X1480920Y242899D01*
X1480736Y242776D01*
X1480571Y242635D01*
X1480424Y242476D01*
X1480296Y242299D01*
X1480189Y242106D01*
X1480101Y241896D01*
X1480032Y241668D01*
X1479984Y241424D01*
X1479955Y241163D01*
X1479945Y240884D01*
X1479963Y240516D01*
X1480016Y240173D01*
X1480102Y239855D01*
X1480224Y239562D01*
X1480377Y239299D01*
X1480560Y239068D01*
X1480773Y238870D01*
X1481016Y238705D01*
X1481283Y238576D01*
X1481572Y238483D01*
X1481880Y238428D01*
X1482209Y238410D01*
G37*
%LPD*%
G36*
X1472724Y237723D02*
X1475192Y243898D01*
X1476143Y243899D01*
X1478672Y237733D01*
X1477804Y237732D01*
X1477092Y239535D01*
X1474280Y239530D01*
X1473578Y237725D01*
X1472724Y237723D01*
G37*
%LPC*%
G36*
X1474529Y240183D02*
X1476837Y240187D01*
X1476045Y242213D01*
X1475856Y242731D01*
X1475719Y243145D01*
X1475680Y243268D01*
X1475562Y242904D01*
X1475318Y242221D01*
X1474529Y240183D01*
G37*
%LPD*%
G36*
X1485333Y237745D02*
X1487617Y240985D01*
X1485502Y243916D01*
X1486426Y243917D01*
X1488098Y241499D01*
X1489811Y243923D01*
X1490735Y243925D01*
X1488572Y240956D01*
X1490925Y237755D01*
X1490001Y237753D01*
X1488105Y240448D01*
X1486257Y237747D01*
X1485333Y237745D01*
G37*
G36*
X1481738Y212251D02*
X1481514Y212257D01*
X1481297Y212276D01*
X1481086Y212309D01*
X1480883Y212354D01*
X1480496Y212483D01*
X1480137Y212664D01*
X1479811Y212896D01*
X1479524Y213175D01*
X1479275Y213501D01*
X1479064Y213876D01*
X1479747Y214218D01*
X1479920Y213918D01*
X1480114Y213658D01*
X1480328Y213437D01*
X1480562Y213257D01*
X1480816Y213117D01*
X1481090Y213018D01*
X1481384Y212958D01*
X1481698Y212939D01*
X1481944Y212950D01*
X1482177Y212983D01*
X1482397Y213037D01*
X1482604Y213113D01*
X1482798Y213210D01*
X1482979Y213329D01*
X1483147Y213469D01*
X1483301Y213631D01*
X1483440Y213811D01*
X1483560Y214004D01*
X1483662Y214212D01*
X1483745Y214433D01*
X1483810Y214668D01*
X1483856Y214917D01*
X1483883Y215180D01*
X1483892Y215456D01*
X1483882Y215735D01*
X1483855Y215999D01*
X1483810Y216248D01*
X1483748Y216481D01*
X1483667Y216699D01*
X1483569Y216902D01*
X1483453Y217089D01*
X1483319Y217262D01*
X1483170Y217416D01*
X1483006Y217549D01*
X1482828Y217662D01*
X1482635Y217755D01*
X1482429Y217826D01*
X1482208Y217878D01*
X1481973Y217908D01*
X1481724Y217918D01*
X1481409Y217900D01*
X1481116Y217846D01*
X1480845Y217756D01*
X1480597Y217631D01*
X1480376Y217473D01*
X1480187Y217282D01*
X1480032Y217060D01*
X1479909Y216807D01*
X1479115Y217068D01*
X1479292Y217424D01*
X1479513Y217733D01*
X1479777Y217996D01*
X1480086Y218213D01*
X1480436Y218382D01*
X1480827Y218503D01*
X1481038Y218546D01*
X1481259Y218576D01*
X1481490Y218595D01*
X1481732Y218601D01*
X1482075Y218589D01*
X1482398Y218550D01*
X1482703Y218485D01*
X1482989Y218394D01*
X1483255Y218277D01*
X1483503Y218134D01*
X1483731Y217964D01*
X1483940Y217768D01*
X1484127Y217550D01*
X1484290Y217311D01*
X1484427Y217052D01*
X1484540Y216773D01*
X1484627Y216474D01*
X1484690Y216155D01*
X1484728Y215817D01*
X1484741Y215458D01*
X1484720Y214981D01*
X1484654Y214538D01*
X1484543Y214128D01*
X1484387Y213751D01*
X1484189Y213412D01*
X1483951Y213113D01*
X1483671Y212857D01*
X1483351Y212642D01*
X1482995Y212471D01*
X1482608Y212350D01*
X1482189Y212276D01*
X1481968Y212258D01*
X1481738Y212251D01*
G37*
G36*
X1485377Y212345D02*
X1487662Y215585D01*
X1485546Y218516D01*
X1486470Y218517D01*
X1488143Y216099D01*
X1489855Y218523D01*
X1490779Y218525D01*
X1488617Y215556D01*
X1490969Y212355D01*
X1490045Y212353D01*
X1488149Y215048D01*
X1486301Y212347D01*
X1485377Y212345D01*
G37*
G36*
X1474043Y212325D02*
X1474042Y213008D01*
X1477160Y213014D01*
X1477150Y218501D01*
X1477987Y218503D01*
X1477998Y212332D01*
X1474043Y212325D01*
G37*
G36*
X1482203Y186939D02*
X1481769Y186963D01*
X1481362Y187033D01*
X1480981Y187152D01*
X1480626Y187318D01*
X1480303Y187529D01*
X1480019Y187781D01*
X1479775Y188076D01*
X1479568Y188413D01*
X1479405Y188786D01*
X1479288Y189188D01*
X1479217Y189621D01*
X1479193Y190083D01*
X1479206Y190435D01*
X1479245Y190766D01*
X1479311Y191077D01*
X1479404Y191367D01*
X1479523Y191636D01*
X1479669Y191885D01*
X1479842Y192113D01*
X1480041Y192320D01*
X1480265Y192505D01*
X1480511Y192665D01*
X1480780Y192800D01*
X1481071Y192911D01*
X1481384Y192998D01*
X1481720Y193060D01*
X1482079Y193097D01*
X1482459Y193110D01*
X1484500Y193114D01*
X1484511Y186944D01*
X1482203Y186939D01*
G37*
%LPC*%
G36*
X1482298Y187610D02*
X1483673Y187612D01*
X1483665Y192442D01*
X1482478Y192440D01*
X1482189Y192430D01*
X1481918Y192402D01*
X1481664Y192354D01*
X1481428Y192288D01*
X1481209Y192203D01*
X1481008Y192099D01*
X1480825Y191976D01*
X1480659Y191835D01*
X1480512Y191676D01*
X1480385Y191499D01*
X1480277Y191306D01*
X1480189Y191096D01*
X1480121Y190868D01*
X1480072Y190624D01*
X1480043Y190363D01*
X1480034Y190084D01*
X1480052Y189716D01*
X1480104Y189373D01*
X1480191Y189055D01*
X1480312Y188762D01*
X1480466Y188499D01*
X1480649Y188268D01*
X1480862Y188070D01*
X1481104Y187905D01*
X1481372Y187776D01*
X1481660Y187683D01*
X1481969Y187628D01*
X1482298Y187610D01*
G37*
%LPD*%
G36*
X1476295Y186842D02*
X1476037Y186854D01*
X1475795Y186892D01*
X1475570Y186955D01*
X1475360Y187044D01*
X1475167Y187158D01*
X1474990Y187297D01*
X1474829Y187463D01*
X1474684Y187653D01*
X1474556Y187868D01*
X1474445Y188106D01*
X1474351Y188366D01*
X1474273Y188650D01*
X1474213Y188956D01*
X1474170Y189286D01*
X1474144Y189638D01*
X1474135Y190013D01*
X1474142Y190394D01*
X1474166Y190751D01*
X1474206Y191084D01*
X1474262Y191392D01*
X1474335Y191677D01*
X1474423Y191938D01*
X1474528Y192175D01*
X1474650Y192387D01*
X1474788Y192575D01*
X1474944Y192738D01*
X1475118Y192876D01*
X1475310Y192989D01*
X1475520Y193077D01*
X1475748Y193140D01*
X1475994Y193178D01*
X1476257Y193191D01*
X1476528Y193180D01*
X1476780Y193143D01*
X1477014Y193081D01*
X1477228Y192995D01*
X1477424Y192884D01*
X1477601Y192748D01*
X1477759Y192587D01*
X1477899Y192402D01*
X1478021Y192191D01*
X1478127Y191956D01*
X1478216Y191696D01*
X1478290Y191410D01*
X1478347Y191100D01*
X1478388Y190765D01*
X1478413Y190405D01*
X1478422Y190020D01*
X1478414Y189643D01*
X1478390Y189289D01*
X1478349Y188959D01*
X1478291Y188652D01*
X1478216Y188367D01*
X1478125Y188107D01*
X1478017Y187869D01*
X1477892Y187655D01*
X1477750Y187464D01*
X1477592Y187300D01*
X1477418Y187160D01*
X1477226Y187046D01*
X1477018Y186957D01*
X1476794Y186893D01*
X1476553Y186855D01*
X1476295Y186842D01*
G37*
%LPC*%
G36*
X1476285Y187485D02*
X1476454Y187495D01*
X1476612Y187524D01*
X1476757Y187572D01*
X1476891Y187639D01*
X1477012Y187724D01*
X1477122Y187829D01*
X1477220Y187953D01*
X1477306Y188096D01*
X1477382Y188259D01*
X1477447Y188444D01*
X1477502Y188652D01*
X1477547Y188881D01*
X1477606Y189406D01*
X1477625Y190019D01*
X1477604Y190648D01*
X1477544Y191181D01*
X1477499Y191413D01*
X1477444Y191620D01*
X1477379Y191803D01*
X1477304Y191963D01*
X1477218Y192101D01*
X1477119Y192221D01*
X1477008Y192322D01*
X1476883Y192405D01*
X1476746Y192470D01*
X1476597Y192516D01*
X1476434Y192543D01*
X1476259Y192552D01*
X1476088Y192542D01*
X1475929Y192514D01*
X1475783Y192467D01*
X1475650Y192401D01*
X1475529Y192316D01*
X1475420Y192213D01*
X1475325Y192091D01*
X1475241Y191950D01*
X1475169Y191789D01*
X1475107Y191604D01*
X1475054Y191397D01*
X1475011Y191166D01*
X1474954Y190636D01*
X1474936Y190014D01*
X1474957Y189412D01*
X1475019Y188893D01*
X1475065Y188665D01*
X1475121Y188458D01*
X1475187Y188271D01*
X1475264Y188105D01*
X1475351Y187960D01*
X1475449Y187834D01*
X1475560Y187727D01*
X1475681Y187640D01*
X1475815Y187572D01*
X1475960Y187524D01*
X1476117Y187495D01*
X1476285Y187485D01*
G37*
%LPD*%
G36*
X1485251Y186945D02*
X1487719Y193120D01*
X1488669Y193121D01*
X1491198Y186955D01*
X1490331Y186954D01*
X1489618Y188757D01*
X1486807Y188752D01*
X1486105Y186946D01*
X1485251Y186945D01*
G37*
%LPC*%
G36*
X1487055Y189405D02*
X1489363Y189409D01*
X1488571Y191435D01*
X1488382Y191952D01*
X1488245Y192367D01*
X1488206Y192490D01*
X1488088Y192126D01*
X1487844Y191442D01*
X1487055Y189405D01*
G37*
%LPD*%
G36*
X1483045Y161541D02*
X1483034Y167711D01*
X1483788Y167713D01*
X1483795Y163666D01*
X1483782Y163163D01*
X1483744Y162422D01*
X1487072Y167718D01*
X1488044Y167720D01*
X1488055Y161550D01*
X1487311Y161548D01*
X1487303Y165647D01*
X1487324Y166379D01*
X1487345Y166804D01*
X1484052Y161543D01*
X1483045Y161541D01*
G37*
G36*
X1479169Y161534D02*
X1479159Y167021D01*
X1477040Y167018D01*
X1477039Y167701D01*
X1482110Y167710D01*
X1482111Y167027D01*
X1479991Y167023D01*
X1480001Y161536D01*
X1479169Y161534D01*
G37*
G36*
X1489595Y161552D02*
X1489585Y167723D01*
X1490421Y167724D01*
X1490432Y161554D01*
X1489595Y161552D01*
G37*
D10*
X1516327Y352099D02*
X1516682Y148900D01*
X1516327Y352099D02*
X1357577Y351822D01*
X1357932Y148623D01*
X1516682Y148900D01*
M02*
